<svg xmlns="http://www.w3.org/2000/svg" width="15.73" height="14.831" viewBox="0 0 15.73 14.831">
  <g id="Group_4861" data-name="Group 4861" transform="translate(-8 -17)">
    <path id="Path_5888" data-name="Path 5888" d="M13.506,17h4.713c6.4,0,7.292,9.574,2.332,11.906l-3.373,2.778c-.347.3-.546.1-.546-.2V29.4H13.506C6.165,29.4,6.165,17,13.506,17Zm4.217,12.848,2.232-1.885c4.217-1.984,3.373-9.872-1.736-9.872H13.506c-5.854,0-5.854,10.219,0,10.219h4.217Z" transform="translate(0)" fill-rule="evenodd"/>
    <circle id="Ellipse_8" data-name="Ellipse 8" cx="0.75" cy="0.75" r="0.75" transform="translate(12 22)"/>
    <circle id="Ellipse_9" data-name="Ellipse 9" cx="0.75" cy="0.75" r="0.75" transform="translate(15 22)"/>
    <circle id="Ellipse_10" data-name="Ellipse 10" cx="0.75" cy="0.75" r="0.75" transform="translate(18 22)"/>
  </g>
</svg>
