<svg xmlns="http://www.w3.org/2000/svg" width="17.357" height="16.785" viewBox="0 0 17.357 16.785">
  <g id="Layer_2" data-name="Layer 2" transform="translate(-13.072 -14.28)">
    <path id="Path_5889" data-name="Path 5889" d="M28.59,21.872V21.12a6.84,6.84,0,1,0-13.681,0v.752a2.714,2.714,0,0,0,.872,5.282h.609a.47.47,0,0,0,.47-.47V22.2a.47.47,0,0,0-.47-.47h-.54V21.12a5.9,5.9,0,1,1,11.8,0v.613h-.54a.47.47,0,0,0-.47.47v4.488a.47.47,0,0,0,.258.416,5.959,5.959,0,0,1-1.443,1.713,1.779,1.779,0,0,0-1.619-.978h-.761a1.8,1.8,0,0,0-1.8,1.793v.844a.265.265,0,0,0,0,.059.235.235,0,0,0,0,.056.47.47,0,0,0,.47.47,6.847,6.847,0,0,0,6.185-3.927,2.712,2.712,0,0,0,.656-5.271Zm-12.67.8v3.548h-.139a1.774,1.774,0,1,1,0-3.548Zm6.3,7.433v-.47a.855.855,0,0,1,.855-.853h.761a.813.813,0,0,1,.825.573A5.846,5.846,0,0,1,22.22,30.106Zm5.5-3.891H27.58V22.674h.139a1.774,1.774,0,0,1,0,3.548Z" transform="translate(0)"/>
  </g>
</svg>
