<svg xmlns="http://www.w3.org/2000/svg" width="14.061" height="13.514" viewBox="0 0 14.061 13.514">
  <path id="Path_5887" data-name="Path 5887" d="M34,26.227a1.406,1.406,0,0,0-1.123-.956l-3.15-.485-1.434-2.845a1.406,1.406,0,0,0-2.512,0l-1.434,2.845-3.148.485a1.406,1.406,0,0,0-.776,2.388L22.683,29.9l-.511,3.145A1.406,1.406,0,0,0,24.2,34.524l2.831-1.46,2.834,1.458A1.406,1.406,0,0,0,31.9,33.045L31.387,29.9l2.262-2.243A1.406,1.406,0,0,0,34,26.227Zm-4.116,3.187.628,3.86-3.476-1.791-3.476,1.791.628-3.86L21.41,26.661l3.865-.6,1.76-3.492,1.76,3.492,3.865.6Z" transform="translate(-20.005 -21.166)"/>
</svg>
