<svg xmlns="http://www.w3.org/2000/svg" width="16.404" height="16.404" viewBox="0 0 16.404 16.404">
  <g id="Group_5209" data-name="Group 5209" transform="translate(-5 -957.362)">
    <path id="Path_5929" data-name="Path 5929" d="M13.2,5a8.2,8.2,0,1,0,8.2,8.2A8.21,8.21,0,0,0,13.2,5Zm0,1.094A7.108,7.108,0,1,1,6.094,13.2,7.1,7.1,0,0,1,13.2,6.094Zm0,2.552a2.742,2.742,0,0,0-2.734,2.734.547.547,0,1,0,1.094,0,1.64,1.64,0,1,1,3.281,0,1.844,1.844,0,0,1-.6,1.35,14.114,14.114,0,0,1-1.378,1.139.547.547,0,0,0-.205.427v.729a.547.547,0,1,0,1.094,0v-.461a10.217,10.217,0,0,0,1.287-1.082,3.025,3.025,0,0,0,.9-2.1A2.742,2.742,0,0,0,13.2,8.645Zm0,7.655a.729.729,0,1,0,.729.729A.729.729,0,0,0,13.2,16.3Z" transform="translate(0 952.362)"/>
  </g>
</svg>
