<svg xmlns="http://www.w3.org/2000/svg" width="13.844" height="11.57" viewBox="0 0 13.844 11.57">
  <path id="Path_5920" data-name="Path 5920" d="M13.812,3.719H3.958A1.9,1.9,0,0,0,2.063,5.614v7.581a1.9,1.9,0,0,0,1.895,1.895h9.855a1.9,1.9,0,0,0,1.895-1.895V5.614A1.9,1.9,0,0,0,13.812,3.719Zm-9.855.758h9.855a1.137,1.137,0,0,1,1.116.932L8.885,8.964,2.842,5.409A1.137,1.137,0,0,1,3.958,4.477Zm9.855,9.855H3.958a1.138,1.138,0,0,1-1.137-1.137V6.276L8.885,9.844l6.064-3.567v6.918A1.138,1.138,0,0,1,13.812,14.331Z" transform="translate(-1.963 -3.619)" stroke="#000" stroke-width="0.2"/>
</svg>
