<svg xmlns="http://www.w3.org/2000/svg" width="12.65" height="12.65" viewBox="0 0 12.65 12.65">
  <g id="Group_5170" data-name="Group 5170" transform="translate(0.254 0.251)">
    <path id="Path_5826" data-name="Path 5826" d="M55.741,11.2A3.758,3.758,0,0,1,59.5,14.955a.273.273,0,1,0,.546,0,4.3,4.3,0,0,0-4.3-4.3.273.273,0,1,0,0,.546Z" transform="translate(-48.655 -9.897)" stroke="#000" stroke-width="0.5"/>
    <path id="Path_5827" data-name="Path 5827" d="M55.741,24.347a1.982,1.982,0,0,1,1.979,1.979.273.273,0,0,0,.546,0A2.528,2.528,0,0,0,55.741,23.8a.273.273,0,1,0,0,.546Z" transform="translate(-48.655 -21.268)" stroke="#000" stroke-width="0.5"/>
    <path id="Path_5828" data-name="Path 5828" d="M7.76,14.422a9.251,9.251,0,0,0,5.061,2.68,5.834,5.834,0,0,0,3.8-.616,1.046,1.046,0,0,0,.518-.792,1.687,1.687,0,0,0-.528-1.381l-1.5-1.5a1.725,1.725,0,0,0-1.243-.537,1.107,1.107,0,0,0-.807.357l-.937,1.047a8.1,8.1,0,0,1-3.62-3.62l1.047-.937a1.107,1.107,0,0,0,.357-.807A1.724,1.724,0,0,0,9.37,7.072l-1.5-1.5a1.687,1.687,0,0,0-1.381-.528,1.047,1.047,0,0,0-.792.518,5.833,5.833,0,0,0-.616,3.8A9.252,9.252,0,0,0,7.76,14.422ZM6.169,5.832a.511.511,0,0,1,.39-.248,1.159,1.159,0,0,1,.923.373l1.5,1.5a1.2,1.2,0,0,1,.377.842.568.568,0,0,1-.176.415L7.836,9.923l.084.183a8.614,8.614,0,0,0,4.156,4.156l.183.084L13.466,13a.567.567,0,0,1,.415-.176,1.2,1.2,0,0,1,.842.377l1.5,1.5a1.159,1.159,0,0,1,.373.923.511.511,0,0,1-.248.39,5.3,5.3,0,0,1-3.448.55,8.7,8.7,0,0,1-4.756-2.526A8.7,8.7,0,0,1,5.619,9.28,5.3,5.3,0,0,1,6.169,5.832Z" transform="translate(-5 -5.036)" stroke="#000" stroke-width="0.5"/>
  </g>
</svg>
