<svg xmlns="http://www.w3.org/2000/svg" width="16.143" height="16.109" viewBox="0 0 16.143 16.109">
  <g id="Group_5254" data-name="Group 5254" transform="translate(-2.5 -2.6)">
    <path id="Path_5933" data-name="Path 5933" d="M16.026,3.755H14.463v-.7a.459.459,0,1,0-.918,0v2.4a.893.893,0,0,0-.459.782.918.918,0,1,0,1.376-.782V4.673h1.563a1.693,1.693,0,0,1,1.7,1.7v1.41H3.418V6.372a1.7,1.7,0,0,1,1.7-1.7h.8V3.755h-.8A2.618,2.618,0,0,0,2.5,6.372v9.72a2.618,2.618,0,0,0,2.617,2.617H16.026a2.618,2.618,0,0,0,2.617-2.617V6.372A2.618,2.618,0,0,0,16.026,3.755Zm1.7,12.336a1.693,1.693,0,0,1-1.7,1.7H5.117a1.693,1.693,0,0,1-1.7-1.7V8.7H17.742v7.392Z"/>
    <path id="Path_5934" data-name="Path 5934" d="M19.786,51.071h.765a.986.986,0,1,0,0-1.971h-.765a.986.986,0,0,0-.986.986A1,1,0,0,0,19.786,51.071Z" transform="translate(-13.53 -38.599)"/>
    <path id="Path_5935" data-name="Path 5935" d="M42.986,51.071h.765a.986.986,0,1,0,0-1.971h-.765a.986.986,0,1,0,0,1.971Z" transform="translate(-32.788 -38.599)"/>
    <path id="Path_5936" data-name="Path 5936" d="M66.186,51.071h.765a.986.986,0,1,0,0-1.971h-.765a.986.986,0,1,0,0,1.971Z" transform="translate(-52.046 -38.599)"/>
    <path id="Path_5937" data-name="Path 5937" d="M19.786,71.571h.765a.986.986,0,1,0,0-1.971h-.765a.986.986,0,0,0-.986.986A1,1,0,0,0,19.786,71.571Z" transform="translate(-13.53 -55.615)"/>
    <path id="Path_5938" data-name="Path 5938" d="M42.986,71.571h.765a.986.986,0,1,0,0-1.971h-.765a.986.986,0,1,0,0,1.971Z" transform="translate(-32.788 -55.615)"/>
    <path id="Path_5939" data-name="Path 5939" d="M66.186,71.571h.765a.986.986,0,1,0,0-1.971h-.765a.986.986,0,1,0,0,1.971Z" transform="translate(-52.046 -55.615)"/>
    <path id="Path_5940" data-name="Path 5940" d="M25.318,7.137a.909.909,0,0,0,.459-1.7V4.656h5.2v-.9h-5.2v-.7a.459.459,0,0,0-.918,0v2.4a.893.893,0,0,0-.459.782A.91.91,0,0,0,25.318,7.137Z" transform="translate(-18.179)"/>
  </g>
</svg>
