<svg xmlns="http://www.w3.org/2000/svg" width="18.397" height="11.405" viewBox="0 0 18.397 11.405">
  <g id="Group_4855" data-name="Group 4855" transform="translate(-95.855 -254.166)">
    <g id="Group_4856" data-name="Group 4856" transform="translate(95.855 254.166)">
      <g id="Group_4855-2" data-name="Group 4855">
        <path id="Path_5885" data-name="Path 5885" d="M113.021,259.531a10.067,10.067,0,0,1-.7,1.076l-.086.115c-.051.069.111-.139.035-.046l-.04.051c-.069.088-.141.175-.212.259-.135.157-.274.312-.418.46a9.868,9.868,0,0,1-.939.858c-.038.031-.075.06-.113.088-.066.053.141-.108.046-.035-.018.013-.033.027-.051.038-.088.066-.179.133-.272.2-.17.119-.343.232-.522.34a9.718,9.718,0,0,1-1.282.654l.159-.066a9.767,9.767,0,0,1-2.447.667l.177-.024a9.957,9.957,0,0,1-2.615,0l.177.024a9.767,9.767,0,0,1-2.447-.667l.159.066a10.053,10.053,0,0,1-1.145-.572c-.179-.1-.354-.214-.526-.332-.084-.057-.166-.115-.248-.172-.042-.031-.086-.062-.128-.1-.018-.013-.033-.027-.051-.038s-.033-.027-.051-.038c.029.022.055.044.084.064a8.211,8.211,0,0,1-.953-.842c-.146-.146-.287-.3-.424-.453-.066-.075-.133-.152-.2-.23-.033-.042-.069-.082-.1-.124l-.04-.051-.04-.051.064.084a8.019,8.019,0,0,1-.793-1.2v.67a10.062,10.062,0,0,1,.7-1.076l.086-.115c.051-.069-.111.139-.035.046l.04-.051c.069-.088.141-.175.212-.259.135-.157.274-.312.418-.46a9.865,9.865,0,0,1,.939-.858c.038-.031.075-.06.113-.088.066-.053-.141.108-.046.035.018-.013.033-.027.051-.038.088-.066.179-.133.272-.2.17-.119.343-.232.522-.34a9.713,9.713,0,0,1,1.282-.654l-.159.066a9.768,9.768,0,0,1,2.447-.667l-.177.024a9.954,9.954,0,0,1,2.615,0l-.177-.024a9.768,9.768,0,0,1,2.447.667l-.159-.066a10.058,10.058,0,0,1,1.145.572c.179.1.354.214.526.332.084.057.166.115.248.172.042.031.086.062.128.1.018.013.033.027.051.038s.033.027.051.038c-.029-.022-.055-.044-.084-.064a8.012,8.012,0,0,1,.953.842c.146.146.287.3.424.453.066.075.133.153.2.23.033.042.069.082.1.124l.04.051.04.051-.064-.084a7.927,7.927,0,0,1,.793,1.2.663.663,0,0,0,1.145-.667,10.782,10.782,0,0,0-2.849-3.262,10.228,10.228,0,0,0-3.793-1.815,10.578,10.578,0,0,0-4.507-.1,10.2,10.2,0,0,0-3.892,1.664,10.683,10.683,0,0,0-2.966,3.13,1.261,1.261,0,0,0-.3.8,1.821,1.821,0,0,0,.316.648,10.845,10.845,0,0,0,.628.9,10.251,10.251,0,0,0,1.432,1.521,10.624,10.624,0,0,0,3.8,2.111,10.387,10.387,0,0,0,4.414.349,10.28,10.28,0,0,0,4.056-1.45,10.8,10.8,0,0,0,3.132-2.982,9.76,9.76,0,0,0,.528-.842.663.663,0,0,0-1.143-.672Z" transform="translate(-95.855 -254.166)"/>
      </g>
    </g>
    <g id="Group_4858" data-name="Group 4858" transform="translate(101.797 256.607)">
      <g id="Group_4857" data-name="Group 4857" transform="translate(0 0)">
        <path id="Path_5886" data-name="Path 5886" d="M369.856,367.894a2.829,2.829,0,0,1-.022.336c.009-.06.015-.117.024-.177a2.711,2.711,0,0,1-.177.659l.066-.159a2.648,2.648,0,0,1-.232.435c-.022.033-.044.064-.066.1-.051.073.051-.064.051-.064s-.035.044-.046.055c-.053.064-.108.124-.166.181s-.111.106-.17.157l-.055.046c-.057.049.128-.093.066-.051-.033.022-.062.044-.1.066a2.653,2.653,0,0,1-.449.241l.159-.066a2.74,2.74,0,0,1-.659.177l.177-.024a2.648,2.648,0,0,1-.674,0l.177.024a2.713,2.713,0,0,1-.659-.177l.159.066a2.647,2.647,0,0,1-.435-.232c-.033-.022-.064-.044-.1-.066-.073-.051.064.051.064.051s-.044-.035-.055-.046c-.064-.053-.124-.108-.181-.166s-.106-.111-.157-.17l-.046-.055c-.049-.057.093.128.051.066-.022-.033-.044-.062-.066-.1a2.65,2.65,0,0,1-.241-.449l.066.159a2.739,2.739,0,0,1-.177-.659c.009.06.015.117.024.177a2.648,2.648,0,0,1,0-.674c-.009.06-.015.117-.024.177a2.712,2.712,0,0,1,.177-.659l-.066.159a2.649,2.649,0,0,1,.232-.435c.022-.033.044-.064.066-.1.051-.073-.051.064-.051.064s.035-.044.046-.055c.053-.064.108-.124.166-.181s.111-.106.17-.157l.055-.046c.057-.049-.128.093-.066.051.033-.022.062-.044.1-.066a2.657,2.657,0,0,1,.449-.241l-.159.066a2.739,2.739,0,0,1,.659-.177l-.177.024a2.648,2.648,0,0,1,.674,0l-.177-.024a2.712,2.712,0,0,1,.659.177l-.159-.066a2.649,2.649,0,0,1,.435.232c.033.022.064.044.1.066.073.051-.064-.051-.064-.051s.044.035.055.046c.064.053.124.108.181.166s.106.111.157.17l.046.055c.049.057-.093-.128-.051-.066.022.033.044.062.066.1a2.658,2.658,0,0,1,.241.449l-.066-.159a2.738,2.738,0,0,1,.177.659c-.009-.06-.015-.117-.024-.177.013.113.02.225.022.338a.663.663,0,0,0,1.326,0,3.246,3.246,0,0,0-.57-1.839A3.392,3.392,0,0,0,369,364.822a3.261,3.261,0,0,0-3.554.961,3.38,3.38,0,0,0-.771,1.894,3.246,3.246,0,0,0,1.85,3.156,3.385,3.385,0,0,0,2.075.245,3.252,3.252,0,0,0,2.526-2.612,3.831,3.831,0,0,0,.053-.572.663.663,0,1,0-1.326,0Z" transform="translate(-364.668 -364.637)"/>
      </g>
    </g>
  </g>
</svg>
