<svg xmlns="http://www.w3.org/2000/svg" width="57.679" height="57.679" viewBox="0 0 57.679 57.679">
  <path id="Path_5990" data-name="Path 5990" d="M48.079,24.428l-13.734-6.7a1.157,1.157,0,0,0-1.011,0L19.6,24.428a1.153,1.153,0,0,0-.64,1.174L19.966,34A18.321,18.321,0,0,0,33.623,50.047a1.149,1.149,0,0,0,.434,0A18.322,18.322,0,0,0,47.713,34L48.719,25.6A1.153,1.153,0,0,0,48.079,24.428Zm-2.657,9.293A16,16,0,0,1,33.839,47.735,16,16,0,0,1,22.256,33.721l-.908-7.579,12.491-6.093,12.491,6.093ZM31.777,36.486,39.766,28.5A1.153,1.153,0,1,1,41.4,30.128l-8.805,8.805a1.154,1.154,0,0,1-1.632,0l-4.68-4.68a1.153,1.153,0,0,1,1.632-1.631Zm28.939-6.521L59.01,28.714a2.483,2.483,0,0,1-.809-3.02l.851-1.936a4.806,4.806,0,0,0-3.875-6.712l-2.1-.231A2.484,2.484,0,0,1,50.864,14.6l-.231-2.1a4.805,4.805,0,0,0-6.712-3.875l-1.935.851a2.485,2.485,0,0,1-3.021-.809L37.714,6.963a4.806,4.806,0,0,0-7.75,0l-1.25,1.705a2.487,2.487,0,0,1-3.021.809l-1.936-.851A4.805,4.805,0,0,0,17.046,12.5l-.231,2.1A2.484,2.484,0,0,1,14.6,16.815l-2.1.231a4.806,4.806,0,0,0-3.875,6.712l.851,1.936a2.483,2.483,0,0,1-.81,3.02l-1.7,1.251a4.805,4.805,0,0,0,0,7.749l1.7,1.251a2.483,2.483,0,0,1,.809,3.02l-.851,1.936A4.806,4.806,0,0,0,12.5,50.633l2.1.231a2.484,2.484,0,0,1,2.211,2.211l.231,2.1a4.805,4.805,0,0,0,6.712,3.875l1.936-.851a2.486,2.486,0,0,1,3.02.809l1.251,1.705a4.806,4.806,0,0,0,7.75,0l1.25-1.705a2.488,2.488,0,0,1,3.021-.809l1.935.851a4.805,4.805,0,0,0,6.712-3.875l.231-2.1a2.484,2.484,0,0,1,2.212-2.211l2.1-.231a4.806,4.806,0,0,0,3.875-6.712L58.2,41.986a2.483,2.483,0,0,1,.81-3.02l1.7-1.251a4.8,4.8,0,0,0,0-7.749Zm-1.365,5.889-1.705,1.251a4.776,4.776,0,0,0-1.556,5.809l.851,1.936a2.5,2.5,0,0,1-2.015,3.49l-2.1.231a4.776,4.776,0,0,0-4.253,4.253l-.231,2.1a2.5,2.5,0,0,1-3.49,2.015l-1.935-.851a4.778,4.778,0,0,0-5.81,1.557l-1.25,1.705a2.5,2.5,0,0,1-4.029,0l-1.251-1.705a4.777,4.777,0,0,0-3.861-1.97,4.836,4.836,0,0,0-1.949.413l-1.936.851a2.5,2.5,0,0,1-3.49-2.015l-.231-2.1a4.776,4.776,0,0,0-4.253-4.253l-2.1-.231a2.5,2.5,0,0,1-2.015-3.49l.851-1.936a4.776,4.776,0,0,0-1.556-5.809L8.328,35.854a2.5,2.5,0,0,1,0-4.029l1.705-1.251a4.776,4.776,0,0,0,1.557-5.809l-.851-1.936a2.5,2.5,0,0,1,2.015-3.49l2.1-.231a4.776,4.776,0,0,0,4.253-4.253l.231-2.1a2.5,2.5,0,0,1,3.49-2.015l1.936.851a4.776,4.776,0,0,0,5.81-1.557l1.25-1.705a2.5,2.5,0,0,1,4.03,0L37.1,10.033a4.779,4.779,0,0,0,5.81,1.557l1.935-.851a2.5,2.5,0,0,1,3.49,2.015l.231,2.1a4.776,4.776,0,0,0,4.253,4.253l2.1.231a2.5,2.5,0,0,1,2.015,3.49l-.851,1.936a4.776,4.776,0,0,0,1.556,5.809l1.705,1.251a2.5,2.5,0,0,1,0,4.029Z" transform="translate(-5 -5)"/>
</svg>
