<svg xmlns="http://www.w3.org/2000/svg" width="56.352" height="56.354" viewBox="0 0 56.352 56.354">
  <g id="customer-support" transform="translate(0 0)">
    <path id="Path_5969" data-name="Path 5969" d="M.434,5.237,4.19,11.808a.938.938,0,0,0,.587.445l3.5.876L20.3,25.146l1.328-1.327-12.2-12.2a.936.936,0,0,0-.436-.247l-3.367-.845-3.2-5.6L5.161,2.183l5.6,3.2.845,3.367a.936.936,0,0,0,.247.436l12.2,12.2,1.327-1.328L13.369,8.046l-.876-3.5a.94.94,0,0,0-.445-.588L5.476.2A.939.939,0,0,0,4.35.353L.595,4.108A.939.939,0,0,0,.434,5.237Zm0,0" transform="translate(-0.31 -0.071)"/>
    <path id="Path_5971" data-name="Path 5971" d="M57.946,399.291a.939.939,0,0,0-.8-.455H51.508a.938.938,0,0,0-.8.455l-2.817,4.694a.939.939,0,0,0,0,.967l2.817,4.694a.939.939,0,0,0,.8.455h5.633a.939.939,0,0,0,.8-.455l2.816-4.694a.939.939,0,0,0,0-.967Zm-1.336,8.932H52.04l-2.253-3.755,2.253-3.755h4.57l2.253,3.755Zm0,0" transform="translate(-43.059 -359.404)"/>
    <path id="Path_5972" data-name="Path 5972" d="M45.336,22.533A11.227,11.227,0,0,0,56.257,8.545a.938.938,0,0,0-1.574-.438l-5.844,5.84L44.2,12.4,42.655,7.767,48.5,1.922a.939.939,0,0,0-.44-1.575A11.231,11.231,0,0,0,34.071,11.267a11.019,11.019,0,0,0,.228,2.2l-20.56,20.56a11.076,11.076,0,0,0-2.2-.228A11.266,11.266,0,1,0,22.8,45.065a11.048,11.048,0,0,0-.228-2.2L27.5,37.943,29.652,40.1a.939.939,0,0,0,1.328,0l.469-.47a1.053,1.053,0,0,1,1.491,1.487l0,0-.469.469a.939.939,0,0,0,0,1.327l11.2,11.2A7.577,7.577,0,1,0,54.431,43.444l-.048-.049-11.2-11.2a.939.939,0,0,0-1.327,0l-.469.469A1.053,1.053,0,0,1,39.9,31.179l0,0,.47-.47a.939.939,0,0,0,0-1.327l-2.153-2.153L43.137,22.3a11.047,11.047,0,0,0,2.2.228Zm3.689,31.92a5.7,5.7,0,0,1-2-.364l7.332-7.332a5.693,5.693,0,0,1-5.335,7.7Zm-10.636-24.4a2.93,2.93,0,0,0,4.13,4.125L53.055,44.723c.114.115.221.236.325.358l-8.027,8.027c-.123-.1-.244-.21-.359-.325L34.451,42.239a2.93,2.93,0,0,0-4.131-4.125l-1.5-1.5,8.069-8.057Zm3.791-9.442L20.883,41.9a.94.94,0,0,0-.248.892,9.451,9.451,0,1,1-6.827-6.827.947.947,0,0,0,.892-.248L35.993,14.428a.938.938,0,0,0,.247-.892A9.342,9.342,0,0,1,45.87,1.895L40.917,6.849a.938.938,0,0,0-.227.96l1.877,5.633a.94.94,0,0,0,.594.593L48.8,15.913a.939.939,0,0,0,.96-.226l4.952-4.952c.011.179.017.356.017.533a9.34,9.34,0,0,1-11.657,9.1.94.94,0,0,0-.892.247h.005Zm0,0" transform="translate(-0.273 0)"/>
  </g>
</svg>
