<svg xmlns="http://www.w3.org/2000/svg" width="57.772" height="61.938" viewBox="0 0 57.772 61.938">
  <path id="Path_5993" data-name="Path 5993" d="M23.731,37.9A16.667,16.667,0,1,1,40.4,21.231a1.282,1.282,0,1,0,2.564,0A19.231,19.231,0,1,0,23.731,40.461a1.282,1.282,0,1,0,0-2.564Zm0-26.923c-2.9,0-6.01,1.946-6.405,6.294l2.554.231c.342-3.771,3.269-3.962,3.851-3.962.9,0,3.846.237,3.846,3.285,0,1.608-1.019,2.39-2.419,3.532-1.279,1.042-3.03,2.34-3.03,4.721v1.282h2.564V25.077c0-1.11.856-1.731,2.086-2.735,1.428-1.163,3.283-2.611,3.283-5.519C30.061,13.325,27.565,10.974,23.731,10.974Zm-1.6,20.513h2.564V28.923H22.128Zm34.936-5.128H33.987a5.418,5.418,0,0,0-5.449,5.128V53.282a5.418,5.418,0,0,0,5.449,5.128h7.051L44.5,63.025a1.281,1.281,0,0,0,2.051,0l3.462-4.615h7.051a4.869,4.869,0,0,0,4.808-5.128V31.487A4.87,4.87,0,0,0,57.064,26.359Zm2.244,26.923a2.313,2.313,0,0,1-2.244,2.564H49.372a1.282,1.282,0,0,0-1.026.513l-2.821,3.76-2.821-3.76a1.282,1.282,0,0,0-1.026-.513H33.987A2.861,2.861,0,0,1,31.1,53.282V31.487a2.86,2.86,0,0,1,2.885-2.564H57.064a2.313,2.313,0,0,1,2.244,2.564Zm-15.385-6.41h2.564V34.051H43.923Zm0,5.128h2.564V49.436H43.923Z" transform="translate(-4.3 -1.8)" stroke="#edf0f2" stroke-width="0.4"/>
</svg>
