<svg xmlns="http://www.w3.org/2000/svg" width="47.01" height="61.934" viewBox="0 0 47.01 61.934">
  <path id="Path_5979" data-name="Path 5979" d="M65.51,32.378a18.31,18.31,0,0,1-1.418,6.567,52.669,52.669,0,0,1-2.985,6.417,1.1,1.1,0,1,1-1.94-1.045A47.693,47.693,0,0,0,62,38.2a17.5,17.5,0,0,0,1.269-5.82,21.483,21.483,0,0,0-21.267-21.64,21.483,21.483,0,0,0-21.267,21.64c0,10.671,17.237,30.743,21.267,35.22.6-.672,1.492-1.716,2.612-3.059a1.113,1.113,0,1,1,1.716,1.418c-2.089,2.537-3.507,4.1-3.507,4.1a1.089,1.089,0,0,1-1.642,0c-.9-.97-22.684-24.774-22.684-37.683a23.508,23.508,0,1,1,47.01,0Zm-23.505,10A10.223,10.223,0,1,1,52.228,32.154,10.238,10.238,0,0,1,42.005,42.377ZM49.99,32.154a7.984,7.984,0,1,0-7.984,7.984A7.993,7.993,0,0,0,49.99,32.154Zm10.3,29.326a1.278,1.278,0,0,1,0,1.642,1.068,1.068,0,0,1-.821.224,1.122,1.122,0,0,1-.821-.3L54.094,58.5A5.9,5.9,0,0,1,50.81,59.54a6.133,6.133,0,0,1-4.179-1.716,5.91,5.91,0,0,1,8.357-8.357,5.986,5.986,0,0,1,.746,7.462Zm-6.865-5.3a3.648,3.648,0,0,0,0-5.149,3.543,3.543,0,0,0-2.612-1.045A3.864,3.864,0,0,0,48.2,51.033a3.648,3.648,0,0,0,0,5.149A3.739,3.739,0,0,0,53.422,56.182Z" transform="translate(-18.5 -8.5)"/>
</svg>
