<svg xmlns="http://www.w3.org/2000/svg" width="48.409" height="55.467" viewBox="0 0 48.409 55.467">
  <g id="Group_5483" data-name="Group 5483" transform="translate(-8.35 -2.25)">
    <path id="Path_5999" data-name="Path 5999" d="M11.377,48.786V8.575h6.017v1.851a1.389,1.389,0,1,0,2.777,0V8.575h6.6v1.851a1.389,1.389,0,1,0,2.777,0V8.575h6.6v1.851a1.389,1.389,0,1,0,2.777,0V8.575h6.017V26.048a4.459,4.459,0,0,1,1.562-.984,4.639,4.639,0,0,1,1.215-.289V8A2.259,2.259,0,0,0,45.455,5.74H39.033V3.889a1.389,1.389,0,0,0-2.777,0V5.74h-6.6V3.889a1.389,1.389,0,0,0-2.777,0V5.74H20.229V3.889a1.389,1.389,0,0,0-2.777,0V5.74h-6.6A2.259,2.259,0,0,0,8.6,8V49.248a2.31,2.31,0,0,0,2.256,2.314H33.768a4.551,4.551,0,0,1,.174-2.777Z" stroke="#edf0f2" stroke-width="0.5"/>
    <path id="Path_6000" data-name="Path 6000" d="M28.49,28.421a1.379,1.379,0,0,0-1.967.058l-2.141,2.314-.636-.694a1.392,1.392,0,0,0-2.025,1.909L23.4,33.8a1.4,1.4,0,0,0,2.083,0l3.182-3.414A1.576,1.576,0,0,0,28.49,28.421Z" transform="translate(-5.368 -10.762)" stroke="#edf0f2" stroke-width="0.5"/>
    <path id="Path_6001" data-name="Path 6001" d="M28.49,45.121a1.379,1.379,0,0,0-1.967.058l-2.141,2.314-.636-.694a1.392,1.392,0,1,0-2.025,1.909L23.4,50.5a1.4,1.4,0,0,0,2.083,0l3.182-3.414A1.576,1.576,0,0,0,28.49,45.121Z" transform="translate(-5.368 -17.8)" stroke="#edf0f2" stroke-width="0.5"/>
    <path id="Path_6002" data-name="Path 6002" d="M26.381,61.862,24.24,64.176l-.694-.694a1.392,1.392,0,0,0-2.025,1.909L23.2,67.185a1.4,1.4,0,0,0,2.083,0l3.182-3.414a1.379,1.379,0,0,0-.058-1.967A1.4,1.4,0,0,0,26.381,61.862Z" transform="translate(-5.283 -24.821)" stroke="#edf0f2" stroke-width="0.5"/>
    <path id="Path_6003" data-name="Path 6003" d="M53.027,49.089A1.408,1.408,0,0,0,51.639,47.7H39.489a1.389,1.389,0,1,0,0,2.777h12.15A1.408,1.408,0,0,0,53.027,49.089Z" transform="translate(-12.432 -19.049)" stroke="#edf0f2" stroke-width="0.5"/>
    <path id="Path_6004" data-name="Path 6004" d="M51.639,31H39.489a1.389,1.389,0,1,0,0,2.777h12.15a1.389,1.389,0,0,0,0-2.777Z" transform="translate(-12.432 -12.011)" stroke="#edf0f2" stroke-width="0.5"/>
    <path id="Path_6005" data-name="Path 6005" d="M38,65.789a1.408,1.408,0,0,0,1.389,1.389H49.861L51.191,64.4H39.446A1.385,1.385,0,0,0,38,65.789Z" transform="translate(-12.39 -26.087)" stroke="#edf0f2" stroke-width="0.5"/>
    <path id="Path_6006" data-name="Path 6006" d="M76.614,50.028a2.5,2.5,0,0,0-1.273-1.389l-5.554-2.6a2.426,2.426,0,0,0-1.909-.058h0a2.5,2.5,0,0,0-1.389,1.273L56.942,67.733a2.572,2.572,0,0,0-.116,1.736l1.331,4.455a2.565,2.565,0,0,0,1.331,1.562,2.426,2.426,0,0,0,1.909.058.2.2,0,0,0,.116-.058l4.224-1.851a2.6,2.6,0,0,0,1.273-1.215l9.546-20.481A2.44,2.44,0,0,0,76.614,50.028ZM69.034,49.1l4.4,2.025-1.157,2.43-4.4-2.025ZM71,56.451l-4.744,10.3-4.4-2.025,4.8-10.3ZM60.934,72.361l-1.041-3.529.636-1.331,4.4,2.025-.636,1.331Z" transform="translate(-20.282 -18.253)" stroke="#edf0f2" stroke-width="0.5"/>
  </g>
</svg>
