<svg xmlns="http://www.w3.org/2000/svg" width="59.034" height="57.426" viewBox="0 0 59.034 57.426">
  <path id="Path_6016" data-name="Path 6016" d="M-232.683,414.494v-10.2h-3.724A7.946,7.946,0,0,1-244.3,396.4v-24.2a7.946,7.946,0,0,1,7.894-7.894h24.352a1.335,1.335,0,0,1,1.34,1.34,1.335,1.335,0,0,1-1.34,1.34h-24.352a5.149,5.149,0,0,0-5.138,5.138v24.2a5.149,5.149,0,0,0,5.138,5.138h5.138a1.335,1.335,0,0,1,1.34,1.34v8.341l9.756-9.383a1.416,1.416,0,0,1,.968-.372h22.49a5.358,5.358,0,0,0,4.841-3.277,1.372,1.372,0,0,1,1.787-.745,1.372,1.372,0,0,1,.745,1.787,8.024,8.024,0,0,1-7.373,4.99h-21.894L-230.3,415.313a1.416,1.416,0,0,1-.968.372,1.267,1.267,0,0,1-.521-.074A1.056,1.056,0,0,1-232.683,414.494Zm46.916-38.278h0v.372l-2.16,13.4c-.447,3.426-2.9,5.436-6.553,5.436h-15.937a5.522,5.522,0,0,1-3.872-1.564,2.655,2.655,0,0,1-1.713.6h-5.213a2.67,2.67,0,0,1-2.681-2.681V375.1a2.67,2.67,0,0,1,2.681-2.681H-216a2.812,2.812,0,0,1,2.011.894h.074c.223-.074,5.883-1.713,5.883-6.479v-6.479a1.277,1.277,0,0,1,.968-1.266c.149-.074,3.426-1.043,5.809.745,1.489,1.117,2.309,2.979,2.309,5.585v5.362h7.522A5.34,5.34,0,0,1-185.766,376.216Zm-30.161-1.192h-5.138v16.681h5.138Zm27.48,1.192h0a2.861,2.861,0,0,0-2.9-2.9h-8.862a1.335,1.335,0,0,1-1.34-1.34v-6.7c0-1.638-.372-2.83-1.192-3.351a3.6,3.6,0,0,0-2.383-.521v5.362c0,6.851-7.522,9.011-7.819,9.085h-.074v13.926a2.908,2.908,0,0,0,2.9,2.9h15.937c3.5,0,3.8-2.309,3.872-3.053v-.074Z" transform="translate(244.55 -358.509)" stroke="#edf0f2" stroke-width="0.5"/>
</svg>
