<svg xmlns="http://www.w3.org/2000/svg" width="56.844" height="56.844" viewBox="0 0 56.844 56.844">
  <g id="Group_5484" data-name="Group 5484" transform="translate(-4 -4)">
    <path id="Path_6013" data-name="Path 6013" d="M32.392,5A27.422,27.422,0,1,0,59.844,32.392,27.4,27.4,0,0,0,32.392,5Zm0,50.471a23.079,23.079,0,1,1,23.14-23.14A23.069,23.069,0,0,1,32.392,55.471Z" transform="translate(0 0)" stroke="#edf0f2" stroke-width="2"/>
    <path id="Path_6014" data-name="Path 6014" d="M44.338,27a8.8,8.8,0,0,0-5.891,1.883A6.011,6.011,0,0,0,36.2,33.924l.061.182h3.766a3.416,3.416,0,0,1,1.215-2.855A4.932,4.932,0,0,1,44.4,30.219a4.471,4.471,0,0,1,3.158,1.154,4.272,4.272,0,0,1,1.154,3.219,4.972,4.972,0,0,1-.85,3.037c-.547.79-1.458,2-2.794,3.583a10.419,10.419,0,0,0-2.429,2.855,10.224,10.224,0,0,0-.547,4.009h3.887a9.15,9.15,0,0,1,.243-2.612,3.541,3.541,0,0,1,1.215-1.883A26.384,26.384,0,0,0,51.2,39.208a8.976,8.976,0,0,0,1.4-4.677,7.107,7.107,0,0,0-2.186-5.588A8.8,8.8,0,0,0,44.338,27Z" transform="translate(-12.251 -8.638)" stroke="#edf0f2" stroke-width="2"/>
    <rect id="Rectangle_18589" data-name="Rectangle 18589" width="4.009" height="4.069" transform="translate(29.78 43.385)" stroke="#edf0f2" stroke-width="2"/>
  </g>
</svg>
