<svg xmlns="http://www.w3.org/2000/svg" width="64.026" height="52.962" viewBox="0 0 64.026 52.962">
  <g id="Group_5488" data-name="Group 5488" transform="translate(-585.25 -2703.506)">
    <path id="Path_6017" data-name="Path 6017" d="M-232.683,414.494v-10.2h-3.724A7.946,7.946,0,0,1-244.3,396.4v-24.2a7.946,7.946,0,0,1,7.894-7.894h24.352a1.335,1.335,0,0,1,1.34,1.34,1.335,1.335,0,0,1-1.34,1.34h-24.352a5.149,5.149,0,0,0-5.138,5.138v24.2a5.149,5.149,0,0,0,5.138,5.138h5.138a1.335,1.335,0,0,1,1.34,1.34v8.341l9.756-9.383a1.416,1.416,0,0,1,.968-.372h22.49a5.358,5.358,0,0,0,4.841-3.277,1.372,1.372,0,0,1,1.787-.745,1.372,1.372,0,0,1,.745,1.787,8.024,8.024,0,0,1-7.373,4.99h-21.894L-230.3,415.313a1.416,1.416,0,0,1-.968.372,1.267,1.267,0,0,1-.521-.074A1.056,1.056,0,0,1-232.683,414.494Z" transform="translate(829.8 2340.533)" stroke="#edf0f2" stroke-width="0.5"/>
    <g id="Group_5488-2" data-name="Group 5488" transform="translate(-108 -79.494)">
      <path id="Path_6018" data-name="Path 6018" d="M53.4,58.581a1.109,1.109,0,0,0,1.512.406l2.073-1.2.61.522a10.224,10.224,0,0,0,3.2,1.856l.746.271V62.83a1.168,1.168,0,0,0,1.129,1.148h3.161a1.166,1.166,0,0,0,1.13-1.148V60.439l.746-.271a10.193,10.193,0,0,0,3.2-1.858l.616-.523,2.071,1.2a1.109,1.109,0,0,0,1.513-.405l1.581-2.738a1.109,1.109,0,0,0-.405-1.513l-2.069-1.2.144-.792a10.369,10.369,0,0,0,0-3.711l-.144-.794,2.069-1.195a1.109,1.109,0,0,0,.405-1.513L75.108,42.4a1.109,1.109,0,0,0-1.511-.406l-2.073,1.2-.61-.519a10.224,10.224,0,0,0-3.2-1.856l-.748-.273V38.148A1.168,1.168,0,0,0,65.833,37H62.672a1.166,1.166,0,0,0-1.129,1.148v2.389l-.746.271a10.194,10.194,0,0,0-3.2,1.858l-.616.523-2.071-1.2a1.109,1.109,0,0,0-1.513.405l-1.581,2.739a1.109,1.109,0,0,0,.405,1.513l2.069,1.194-.144.792a10.371,10.371,0,0,0,0,3.711l.144.794-2.069,1.195a1.109,1.109,0,0,0-.406,1.513Zm10.856-14.9a6.8,6.8,0,1,1-6.8,6.8,6.8,6.8,0,0,1,6.8-6.8Z" transform="translate(678.154 2748.279)" fill="none"/>
      <path id="Path_6019" data-name="Path 6019" d="M187.139,191.659a4.519,4.519,0,1,0-4.519-4.519A4.519,4.519,0,0,0,187.139,191.659Z" transform="translate(555.267 2611.627)" fill="none"/>
      <path id="Path_6020" data-name="Path 6020" d="M14.652,19.69a3.37,3.37,0,0,0,.339,2.574L16.571,25A3.4,3.4,0,0,0,21.2,26.244l.693-.4a13.518,13.518,0,0,0,2.52,1.461v.807a3.43,3.43,0,0,0,3.408,3.426h3.161A3.43,3.43,0,0,0,34.4,28.107V27.3a13.517,13.517,0,0,0,2.52-1.462l.7.4A3.394,3.394,0,0,0,42.243,25l1.58-2.738A3.4,3.4,0,0,0,42.58,17.63l-.7-.4a12.658,12.658,0,0,0,0-2.919l.7-.4a3.4,3.4,0,0,0,1.242-4.634l-1.58-2.738a3.4,3.4,0,0,0-4.633-1.242l-.692.4A13.516,13.516,0,0,0,34.4,4.233V3.427A3.43,3.43,0,0,0,30.987,0H27.826a3.43,3.43,0,0,0-3.408,3.427v.807A13.517,13.517,0,0,0,21.9,5.7l-.7-.4a3.387,3.387,0,0,0-4.63,1.241l-1.58,2.738A3.4,3.4,0,0,0,16.233,13.9l.7.4a12.66,12.66,0,0,0,0,2.919l-.7.4a3.37,3.37,0,0,0-1.58,2.06Zm2.723-.081,2.07-1.194-.144-.792a10.371,10.371,0,0,1,0-3.711l.144-.794-2.069-1.195a1.109,1.109,0,0,1-.405-1.513l1.581-2.737a1.109,1.109,0,0,1,1.513-.406l2.074,1.2.616-.523a10.194,10.194,0,0,1,3.2-1.856l.743-.27V3.427a1.168,1.168,0,0,1,1.129-1.148h3.161a1.166,1.166,0,0,1,1.13,1.148V5.816l.746.271a10.224,10.224,0,0,1,3.2,1.856l.61.522,2.076-1.2a1.109,1.109,0,0,1,1.511.405l1.58,2.738a1.109,1.109,0,0,1-.405,1.513l-2.069,1.2.144.792a10.369,10.369,0,0,1,0,3.711l-.144.794,2.069,1.195a1.109,1.109,0,0,1,.405,1.513L40.262,23.86a1.109,1.109,0,0,1-1.513.406l-2.074-1.2-.616.523a10.194,10.194,0,0,1-3.2,1.856l-.743.27v2.389a1.168,1.168,0,0,1-1.13,1.148H27.826A1.165,1.165,0,0,1,26.7,28.107V25.718l-.746-.271a10.224,10.224,0,0,1-3.2-1.856l-.61-.522-2.076,1.2a1.109,1.109,0,0,1-1.512-.405l-1.58-2.739a1.109,1.109,0,0,1,.406-1.513Z" transform="translate(713 2783)"/>
      <path id="Path_6021" data-name="Path 6021" d="M152.324,159.129a6.8,6.8,0,1,0-6.8-6.8A6.8,6.8,0,0,0,152.324,159.129Zm0-11.323a4.519,4.519,0,1,1-4.519,4.519,4.519,4.519,0,0,1,4.519-4.519Z" transform="translate(590.082 2646.442)"/>
    </g>
  </g>
</svg>
