<svg xmlns="http://www.w3.org/2000/svg" width="48.08" height="54.184" viewBox="0 0 48.08 54.184">
  <g id="Group_5478" data-name="Group 5478" transform="translate(0.25 0.249)">
    <path id="Path_5991" data-name="Path 5991" d="M12.106,6A1.221,1.221,0,0,0,11,7.22V52.378a1.221,1.221,0,0,0,1.22,1.22h9.554a1.221,1.221,0,1,0,0-2.441H13.441V8.44H35.41v7.323a1.221,1.221,0,0,0,1.22,1.22h7.323v7.59a17.685,17.685,0,1,0,2.441.61V15.763a1.221,1.221,0,0,0-.362-.877L37.489,6.342A1.221,1.221,0,0,0,36.63,6H12.22q-.057,0-.114,0Zm25.745,4.157,4.386,4.386H37.851ZM18.209,14.543a1.222,1.222,0,1,0,.114,2.441h12.2a1.221,1.221,0,1,0,0-2.441h-12.2Q18.266,14.54,18.209,14.543Zm0,5.492a1.222,1.222,0,1,0,.114,2.441h12.2a1.221,1.221,0,1,0,0-2.441h-12.2Q18.266,20.032,18.209,20.035Zm0,5.492a1.222,1.222,0,1,0,.114,2.441h6.312a1.221,1.221,0,1,0,0-2.441H18.323q-.057,0-.114,0Zm22.694,1.2A15.275,15.275,0,1,1,25.627,42,15.27,15.27,0,0,1,40.9,26.729Zm-.019,4.329a1.221,1.221,0,0,0-1.2,1.24v1.831a5.262,5.262,0,0,0-2.193.973,4.428,4.428,0,0,0-1.678,3.509q0,.01,0,.019a4.117,4.117,0,0,0,1.621,3.261,8.844,8.844,0,0,0,3.166,1.3,7.654,7.654,0,0,1,2.346.877,1.357,1.357,0,0,1,.61,1.316c0,.016,0,.021,0,.038a1.8,1.8,0,0,1-.744,1.545,3.3,3.3,0,0,1-1.907.591h-.019a2.668,2.668,0,0,1-2.765-1.564,1.221,1.221,0,1,0-2.193,1.068,5.33,5.33,0,0,0,3.757,2.822v1.812a1.221,1.221,0,1,0,2.441,0V49.88a5.289,5.289,0,0,0,2.193-.992,4.428,4.428,0,0,0,1.678-3.509q0-.01,0-.019A4.117,4.117,0,0,0,44.373,42.1a8.812,8.812,0,0,0-3.166-1.278,7.585,7.585,0,0,1-2.346-.9,1.327,1.327,0,0,1-.61-1.316c0-.009,0-.011,0-.019A1.8,1.8,0,0,1,39,37.026a3.3,3.3,0,0,1,1.907-.591h.019a2.677,2.677,0,0,1,2.765,1.583,1.224,1.224,0,1,0,2.193-1.087,5.31,5.31,0,0,0-3.757-2.8V32.3a1.221,1.221,0,0,0-1.24-1.24Z" transform="translate(-11 -5.997)" stroke="#edf0f2" stroke-width="0.5"/>
  </g>
</svg>
