<svg xmlns="http://www.w3.org/2000/svg" width="52.163" height="59.068" viewBox="0 0 52.163 59.068">
  <g id="Group_5476" data-name="Group 5476" transform="translate(0.2 0.2)">
    <path id="Path_5981" data-name="Path 5981" d="M74.8,66.326,74.486,60.8a8.147,8.147,0,0,0-4.35-6.5,26.336,26.336,0,0,0-5.1-1.659c-3.264-.814-6.283-1.567-8.784-4.931a18.907,18.907,0,0,1-.419-4.382c0-.4,0-.791.01-1.163a9.634,9.634,0,0,1-1.64,1.135,7.154,7.154,0,0,1-3.432.913l-.147,0a9.036,9.036,0,0,1-5.711-2.473c.189,2.385-.049,6.122-3.107,7.377-.787.323-1.777.659-2.894,1.038-4.753,1.611-11.885,4.028-12.427,8.475v0c-.509,4.176-.66,6.617-.7,7.7ZM51.6,35.486a2.289,2.289,0,0,1,1.622.673l0,0a2.3,2.3,0,0,1,.59,1.009,17.082,17.082,0,0,0,6.007-1.265,10.466,10.466,0,0,0,4.319-3.15v-4.5h0c0-1.554.036-3.11.037-4.664,0-.02,0-.039,0-.06a12.873,12.873,0,0,0-4.022-9.315,14.206,14.206,0,0,0-19.49,0,12.872,12.872,0,0,0-4.022,9.315V23.8c0,.08,0,.174.009.279,0,.016,0,.031,0,.047,0,1.566.037,3.135.037,4.7h0v4.724a.672.672,0,0,1-.672.672,5.379,5.379,0,0,1-3.815-1.58c-.013-.013-.025-.026-.036-.04A5.394,5.394,0,0,1,35.3,23.486a14.208,14.208,0,0,1,4.436-10.237,15.536,15.536,0,0,1,21.348,0A14.227,14.227,0,0,1,65.5,22.9a5.395,5.395,0,0,1-.35,10.734,11.857,11.857,0,0,1-4.816,3.5,18.457,18.457,0,0,1-6.561,1.372,2.309,2.309,0,0,1-.555.9l0,0a2.291,2.291,0,0,1-3.243,0l0,0A2.3,2.3,0,0,1,51.6,35.486Zm.676,1.622a.955.955,0,1,0,0,1.354l0,0a.961.961,0,0,0,0-1.351ZM65.48,28.253v4a4.054,4.054,0,0,0,.029-7.991l-.031,3.994h0ZM35.345,32.828v-4h0l-.031-3.995a4.057,4.057,0,0,0-2.2,6.829l.033.031A4.043,4.043,0,0,0,35.345,32.828ZM57.33,40.647a13.1,13.1,0,0,0-.153,2.669,34.784,34.784,0,0,0,.156,3.6c2.213,2.978,5.007,3.674,8.028,4.427a27.408,27.408,0,0,1,5.348,1.748c4.8,2.282,5.115,7.613,5.116,7.628l.354,6.2a.672.672,0,0,1-.666.757H25.093A.672.672,0,0,1,24.421,67a81.375,81.375,0,0,1,.734-8.533c.647-5.287,8.257-7.866,13.33-9.585,1.11-.376,2.1-.71,2.815-1.006,3.236-1.328,2.241-6.8,2.037-7.773q-.534-.645-1.021-1.367a21.477,21.477,0,0,1-3.525-11.726c0-.06,0-.2.007-.42.09-4.273,1.3-7.581,3.226-9.875a10.689,10.689,0,0,1,8.391-3.819,9.952,9.952,0,0,1,7.925,3.795A16.988,16.988,0,0,1,61.7,26.564c.028.508.036,1.026.024,1.552s-.045,1.069-.1,1.6a.67.67,0,1,1-1.333-.126c.049-.5.08-1,.091-1.5q.016-.719-.024-1.452a15.677,15.677,0,0,0-3.064-9.1,8.645,8.645,0,0,0-6.885-3.3,9.372,9.372,0,0,0-7.362,3.336c-1.74,2.072-2.834,5.1-2.916,9.04,0,.051,0,.183,0,.394a20.11,20.11,0,0,0,3.294,10.98,15.78,15.78,0,0,0,1.017,1.352.667.667,0,0,1,.049.058c1.785,2.1,3.948,3.425,6.158,3.471.04,0,0,0,.12,0a5.823,5.823,0,0,0,2.792-.745,9.559,9.559,0,0,0,2.684-2.266.671.671,0,0,1,1.08.79Z" transform="translate(-24.421 -9.001)" stroke="#040503" stroke-width="0.4"/>
  </g>
</svg>
