<svg xmlns="http://www.w3.org/2000/svg" width="60.372" height="60.335" viewBox="0 0 60.372 60.335">
  <g id="Group_5473" data-name="Group 5473" transform="translate(0 0.001)">
    <path id="Path_5978" data-name="Path 5978" d="M35.963,5.966a1.42,1.42,0,0,0-1.22,1.392V12.88A23.315,23.315,0,0,0,12.863,34.76H7.212A1.372,1.372,0,1,0,7.34,37.5h5.523A23.315,23.315,0,0,0,34.743,59.379V64.9a1.37,1.37,0,1,0,2.74,0V59.379A23.315,23.315,0,0,0,59.362,37.5h5.523a1.37,1.37,0,1,0,0-2.74H59.362A23.315,23.315,0,0,0,37.483,12.88V7.357A1.43,1.43,0,0,0,35.963,5.966Zm.15,9.612A20.552,20.552,0,1,1,15.561,36.13,20.531,20.531,0,0,1,36.113,15.578Zm0,14.386a6.166,6.166,0,1,0,6.166,6.166A6.186,6.186,0,0,0,36.113,29.964Zm0,2.74a3.425,3.425,0,1,1-3.425,3.425A3.4,3.4,0,0,1,36.113,32.7Z" transform="translate(-5.904 -5.959)"/>
  </g>
</svg>
