<svg xmlns="http://www.w3.org/2000/svg" width="48.373" height="57.463" viewBox="0 0 48.373 57.463">
  <g id="Group_5472" data-name="Group 5472" transform="translate(0.2 0.214)">
    <path id="Path_5977" data-name="Path 5977" d="M16.768,958.362a1.3,1.3,0,1,0,.122,2.593h37.6a6.094,6.094,0,0,1,2.978.689c.686.409.912.8.912,1.256v1.3c0,.452-.226.827-.912,1.236a6.083,6.083,0,0,1-2.978.709H19.483a8.12,8.12,0,0,0-4.335,1.175A4.111,4.111,0,0,0,13,970.68v40.194a4.078,4.078,0,0,0,2.147,3.343,8.13,8.13,0,0,0,4.335,1.2H54.49a8.13,8.13,0,0,0,4.335-1.2,4.078,4.078,0,0,0,2.147-3.343V964.2c0-.423,0-.864,0-1.3a4.164,4.164,0,0,0-2.168-3.485,8.436,8.436,0,0,0-4.315-1.053H16.768Zm41.611,9.461v43.05c0,.224-.242.7-.952,1.155a5.677,5.677,0,0,1-2.938.79H19.483a5.677,5.677,0,0,1-2.938-.79c-.71-.45-.952-.931-.952-1.155V970.68c0-.224.242-.7.952-1.155a5.676,5.676,0,0,1,2.938-.79H54.49A8.575,8.575,0,0,0,58.379,967.823Zm-24.108,7.395a1.343,1.343,0,0,0-1.175,1.3v3.019a11.78,11.78,0,0,0-1.2.588l-2.532-2.026a1.342,1.342,0,0,0-1.722.081l-3.241,3.241a1.343,1.343,0,0,0-.1,1.742l2.026,2.553a12.387,12.387,0,0,0-.567,1.175H22.724a1.348,1.348,0,0,0-1.3,1.3v5.186a1.348,1.348,0,0,0,1.3,1.3h3.039a12.328,12.328,0,0,0,.588,1.175L24.3,998.394a1.342,1.342,0,0,0,.1,1.722l3.241,3.242a1.342,1.342,0,0,0,1.722.1l2.553-2.046A11.6,11.6,0,0,0,33.1,1002v3.039a1.347,1.347,0,0,0,1.3,1.3h5.186a1.347,1.347,0,0,0,1.3-1.3V1002a11.6,11.6,0,0,0,1.175-.587l2.553,2.046a1.342,1.342,0,0,0,1.722-.1l3.241-3.242a1.342,1.342,0,0,0,.1-1.722l-2.046-2.552a12.328,12.328,0,0,0,.588-1.175h3.039a1.348,1.348,0,0,0,1.3-1.3v-5.186a1.348,1.348,0,0,0-1.3-1.3H48.21a12.387,12.387,0,0,0-.567-1.175l2.026-2.553a1.343,1.343,0,0,0-.1-1.742l-3.241-3.241a1.342,1.342,0,0,0-1.722-.081l-2.532,2.026a11.78,11.78,0,0,0-1.2-.588v-3.019a1.347,1.347,0,0,0-1.3-1.3H34.272Zm1.418,2.593h2.593V980.4a1.334,1.334,0,0,0,.952,1.236,12.3,12.3,0,0,1,2.289,1.175,1.33,1.33,0,0,0,1.459-.1l2.35-1.864,1.58,1.58-1.864,2.35a1.329,1.329,0,0,0-.122,1.439,13.641,13.641,0,0,1,1.175,2.31,1.335,1.335,0,0,0,1.256.952h2.593v2.593H47.359A1.333,1.333,0,0,0,46.1,993a13.643,13.643,0,0,1-1.175,2.31,1.33,1.33,0,0,0,.122,1.459l1.864,2.33-1.6,1.6-2.33-1.864a1.33,1.33,0,0,0-1.459-.121,12.3,12.3,0,0,1-2.289,1.175,1.335,1.335,0,0,0-.952,1.256v2.593H35.69v-2.593a1.335,1.335,0,0,0-.952-1.256,12.3,12.3,0,0,1-2.289-1.175,1.33,1.33,0,0,0-1.459.121l-2.33,1.864-1.6-1.6,1.864-2.33a1.33,1.33,0,0,0,.122-1.459A13.643,13.643,0,0,1,27.87,993a1.335,1.335,0,0,0-1.256-.932H24.021V989.48h2.593a1.338,1.338,0,0,0,1.256-.952,13.641,13.641,0,0,1,1.175-2.31,1.329,1.329,0,0,0-.122-1.439l-1.864-2.35,1.58-1.58,2.35,1.864a1.33,1.33,0,0,0,1.459.1,12.3,12.3,0,0,1,2.289-1.175,1.334,1.334,0,0,0,.952-1.236Zm1.3,6.483a6.483,6.483,0,1,0,6.483,6.483A6.5,6.5,0,0,0,36.986,984.293Zm0,2.593a3.89,3.89,0,1,1-3.89,3.89A3.87,3.87,0,0,1,36.986,986.887Z" transform="translate(-13 -958.362)" stroke="#edf0f2" stroke-width="0.4"/>
  </g>
</svg>
