<svg xmlns="http://www.w3.org/2000/svg" width="60.428" height="44.864" viewBox="0 0 60.428 44.864">
  <g id="Group_5482" data-name="Group 5482" transform="translate(-7.5 -970.862)">
    <path id="Path_5994" data-name="Path 5994" d="M19.32,971.362A11.326,11.326,0,0,0,8,982.682v21.224a11.326,11.326,0,0,0,11.32,11.32H56.109a11.326,11.326,0,0,0,11.32-11.32V982.682a11.326,11.326,0,0,0-11.32-11.32H19.32Zm0,2.83H56.109a8.44,8.44,0,0,1,8.49,8.49v21.224a8.44,8.44,0,0,1-8.49,8.49H19.32a8.44,8.44,0,0,1-8.49-8.49V982.682A8.44,8.44,0,0,1,19.32,974.192Zm12.624,8.49a1.415,1.415,0,0,0-1.3,1.415v18.394a1.42,1.42,0,0,0,2.145,1.238l15.565-9.2a1.415,1.415,0,0,0,0-2.454l-15.565-9.2a1.415,1.415,0,0,0-.84-.2Zm1.526,3.913,11.342,6.7-11.342,6.721Z" stroke="#edf0f2" stroke-width="1"/>
  </g>
</svg>
