<svg xmlns="http://www.w3.org/2000/svg" width="48.804" height="57.541" viewBox="0 0 48.804 57.541">
  <g id="Group_5477" data-name="Group 5477" transform="translate(0.4 0.401)">
    <path id="Path_5982" data-name="Path 5982" d="M58.544,5.2H17.4a3.429,3.429,0,0,0-3.429,3.429v48A3.429,3.429,0,0,0,17.4,60.063H42.38v-1.21H17.4a2.221,2.221,0,0,1-2.219-2.219v-48A2.221,2.221,0,0,1,17.4,6.412H58.544a2.221,2.221,0,0,1,2.219,2.219v48a2.221,2.221,0,0,1-2.219,2.219H57.016v1.21h1.528a3.429,3.429,0,0,0,3.429-3.429v-48A3.429,3.429,0,0,0,58.544,5.2Z" transform="translate(-13.969 -5.203)" stroke="#040503" stroke-width="0.8"/>
    <path id="Path_5983" data-name="Path 5983" d="M27.5,19.012H58.571a.6.6,0,1,0,0-1.209H27.5a.6.6,0,1,0,0,1.209Z" transform="translate(-18.572 -9.691)" stroke="#040503" stroke-width="0.8"/>
    <path id="Path_5984" data-name="Path 5984" d="M27.5,30.143H58.571a.6.6,0,1,0,0-1.209H27.5a.6.6,0,1,0,0,1.209Z" transform="translate(-18.572 -13.656)" stroke="#040503" stroke-width="0.8"/>
    <path id="Path_5985" data-name="Path 5985" d="M59.175,40.668a.6.6,0,0,0-.6-.6H27.5a.6.6,0,1,0,0,1.209H58.571A.6.6,0,0,0,59.175,40.668Z" transform="translate(-18.572 -17.62)" stroke="#040503" stroke-width="0.8"/>
    <path id="Path_5986" data-name="Path 5986" d="M27.5,51.193a.6.6,0,1,0,0,1.209H42.182a.6.6,0,0,0,0-1.209Z" transform="translate(-18.572 -21.584)" stroke="#040503" stroke-width="0.8"/>
    <path id="Path_5987" data-name="Path 5987" d="M64.77,50.326a8.592,8.592,0,1,0,8.592,8.592A8.592,8.592,0,0,0,64.77,50.326Zm0,15.975a7.383,7.383,0,1,1,7.383-7.383A7.391,7.391,0,0,1,64.77,66.3Z" transform="translate(-29.003 -21.276)" stroke="#040503" stroke-width="0.8"/>
    <path id="Path_5988" data-name="Path 5988" d="M71.932,58.722a.605.605,0,0,0-.489-.411l-3.037-.442-1.358-2.752a.629.629,0,0,0-1.084,0l-1.358,2.752-3.037.442a.6.6,0,0,0-.335,1.031l2.2,2.142-.518,3.025a.6.6,0,0,0,.878.637l2.716-1.428,2.716,1.428a.621.621,0,0,0,.294.07.655.655,0,0,0,.617-.6.6.6,0,0,0-.061-.265l-.492-2.863,2.2-2.142A.606.606,0,0,0,71.932,58.722Zm-3.423,2.117a.606.606,0,0,0-.174.535L68.7,63.5,66.788,62.5a.6.6,0,0,0-.563,0L64.312,63.5l.365-2.13a.6.6,0,0,0-.174-.535L62.955,59.33l2.139-.311a.6.6,0,0,0,.455-.331l.957-1.939.957,1.939a.6.6,0,0,0,.455.331l2.139.311Z" transform="translate(-30.739 -22.872)" stroke="#040503" stroke-width="0.8"/>
    <path id="Path_5989" data-name="Path 5989" d="M71.584,76.968a.6.6,0,0,0-.619.027A8.093,8.093,0,0,1,62.2,77a.605.605,0,0,0-.937.505v8.374a.6.6,0,0,0,.975.478l4.316-3.344,4.38,3.347a.6.6,0,0,0,.368.124.6.6,0,0,0,.605-.6V77.5A.608.608,0,0,0,71.584,76.968Zm-.892,7.683-3.779-2.887a.6.6,0,0,0-.738,0L62.466,84.64V78.546a9.3,9.3,0,0,0,8.225,0Z" transform="translate(-30.813 -29.754)" stroke="#040503" stroke-width="0.8"/>
  </g>
</svg>
