<svg xmlns="http://www.w3.org/2000/svg" width="188.733" height="31.974" viewBox="0 0 188.733 31.974">
  <g id="surface1" transform="translate(-97.348 -243.471)">
    <path id="Path_6030" data-name="Path 6030" d="M97.348,258.737v2.406l.068.236c.013.063.022.172.027.24l.172,1.231c.1.555.215,1.04.369,1.573a16.122,16.122,0,0,0,4.358,7.217c10.694,9.7,26.207,1.517,26.17-11.6a15.779,15.779,0,0,0-14.906-15.888,15.368,15.368,0,0,0-9.086,2.518c-.434.283-.747.522-1.124.816a15.915,15.915,0,0,0-4.317,5.254,15.662,15.662,0,0,0-1.1,2.782,14.472,14.472,0,0,0-.542,2.794c-.009.082-.019.165-.036.246-.006.022.008.25-.036.118C97.365,258.671,97.357,258.719,97.348,258.737Zm25.83-6.518c-.546-.124-1.177.457-1.734.866l-4.571,3.392c-2.032,1.521-4.007,3.005-6.013,4.56-1.371,1.063-2.017.3-3.505-.7-1.056-.7-2.111-1.392-3.16-2.126a3.459,3.459,0,0,0-1.761-.852c-.892,0-1.083.917-.689,1.629l4.365,6.276a34.2,34.2,0,0,0,2.384,2.9,2.28,2.28,0,0,0,2.057.456c.915-.248,1.471-1.072,2.122-1.826.207-.24.4-.495.6-.735.408-.479.763-.963,1.194-1.483.4-.49.763-.976,1.146-1.464l2.285-3c1.663-2.212,3.5-4.665,5.048-6.933.223-.326.426-.5.229-.962" transform="translate(0 -0.472)" fill="#16a2b3" fill-rule="evenodd"/>
    <path id="Path_6031" data-name="Path 6031" d="M262.614,243.554c-6.4.42-6.229,6.074-6.229,10.929v5.755c0,3.1-.295,8.138.569,10.857.993,3.132,3.149,4.549,7.175,4.293,3.6-.229,5.264-2.191,5.9-5.514.429-2.256.278-8.532.278-11.175,0-3.214.3-8.008-.586-10.876C268.772,244.746,266.5,243.3,262.614,243.554ZM245.24,261.281a7.7,7.7,0,0,1,2.961.027c.207.228.109,10.908.1,12.647,0,1.517.28,1.232,3.112,1.232,2.357,0,2.278.341,2.278-2.035V245.315c0-.712.138-1.427-.607-1.54-.4-.06-3.925-.059-4.268.014-.669.143-.515.97-.514,1.66,0,1.317.067,9.383-.006,10.143-.029.293-.024.251-.171.37a8.436,8.436,0,0,1-2.871-.006c-.216-.64-.093-8.651-.093-10.573,0-.609.149-1.448-.522-1.593-.312-.069-3.909-.071-4.268-.012-.74.123-.6.819-.6,1.538v27.77c0,2.566-.464,2.1,4.349,2.1.905,0,1.041-.213,1.045-1.1C245.173,272.355,245.057,262.071,245.24,261.281Zm73.828-17.468c-.621.217-.457,1.075-.457,1.769v15.792c0,5.5-.761,12.161,4.3,13.7a8.474,8.474,0,0,0,7.231-1.024c1.772-1.374,2.28-4.422,2.367-6.649.113-2.943.017-6.071.017-9.034V244.846c0-1.418-.636-1.092-3.415-1.092-2.208,0-1.974-.2-1.974,2.5v18a37.271,37.271,0,0,1-.082,4.509,1.493,1.493,0,0,1-2.559,1.111c-.68-.751-.5-2.855-.5-4.013V245.583c0-.689.16-1.616-.464-1.782A34.661,34.661,0,0,0,319.068,243.814Zm-45.6-.01c-.674.189-.475,1.241-.475,2.315v25.428c0,4.029-.33,3.642,2.044,3.642,3.678,0,3.347.4,3.347-2.371v-7.093c0-1.676.406-.674,3.021-1.194,5.668-1.127,5.507-6.748,5.51-11.52,0-6.05-2.162-9.24-7.794-9.256C278.187,243.753,274.043,243.643,273.472,243.8Zm22.024-.27c-5.565.537-5.887,5.259-5.887,10.681v8.3c0,4.205-.685,10.887,4.07,12.48a8.907,8.907,0,0,0,6.891-.539c1.641-1.054,2.49-2.827,2.817-5.474a21.559,21.559,0,0,0,.123-3.961c-.111-.715-.743-.613-1.431-.612-4.5.006-3.929-.337-3.938,2.186,0,1.154.093,2.926-.7,3.461-.579.391-2.108.606-2.367-1.342-.174-1.312-.076-13.823-.075-16.5,0-1.151-.092-2.914.733-3.4.728-.429,2.072-.419,2.324,1.331.123.856-.022,3.537.151,4,.2.534,1.075.4,1.662.4h2.075c1.741,0,1.623.059,1.579-2.525C303.429,246.427,301.507,242.952,295.5,243.534Zm-65.538.024a5.955,5.955,0,0,0-5.378,3.5,11.354,11.354,0,0,0-.129,7.618c1.4,3.8,5.669,7.243,7.322,10.41.737,1.413,1.038,4.616-.379,5.11a1.486,1.486,0,0,1-1.668-.386c-.833-.956-.131-3.2-.891-3.529a28.856,28.856,0,0,0-4.348-.039c-.657.163-.628.877-.6,1.623.171,4.536,2.645,7.982,7.939,7.513a5.939,5.939,0,0,0,5.258-3.572,11.521,11.521,0,0,0,.1-7.579c-1.414-3.839-5.639-7.23-7.326-10.409a5.7,5.7,0,0,1-.514-3.739,1.461,1.461,0,0,1,2.546-.968,3.113,3.113,0,0,1,.494,1.69c.043.656-.118,1.637.381,1.849a27.808,27.808,0,0,0,4.362.055c1.031-.236.556-2.76.4-3.543C236.786,245.527,234.226,243.226,229.959,243.558Zm124.823,0a5.946,5.946,0,0,0-5.354,3.527,11.476,11.476,0,0,0-.13,7.559c1.413,3.816,5.837,7.478,7.313,10.421a5.638,5.638,0,0,1,.547,3.727,1.471,1.471,0,0,1-2.531,1.067c-.855-1.022-.231-3.234-.863-3.553a26.408,26.408,0,0,0-4.342-.085c-1.1.2-.622,2.7-.467,3.493a7.849,7.849,0,0,0,1.284,3.129c1.222,1.662,3.275,2.758,6.3,2.544a6.019,6.019,0,0,0,5.353-3.459,11.437,11.437,0,0,0,.172-7.633c-1.335-3.8-5.59-7.22-7.312-10.423a5.6,5.6,0,0,1-.554-3.764,1.459,1.459,0,0,1,2.529-1.02c.877.974.191,3.169.874,3.544a25.049,25.049,0,0,0,4.347.079c.711-.137.68-.893.656-1.576a9.043,9.043,0,0,0-1.541-5.11A6.8,6.8,0,0,0,354.782,243.561Zm-19.559,1.286v29.242c0,.85.108,1.1.989,1.1h9.5c.883,0,1.006-.251,1.006-1.1v-2.944c0-1.353-.588-1.079-2.546-1.079a16.8,16.8,0,0,1-3.485-.113l-.093-.747c-.047-.769-.008-6.849.074-7.916.656-.287,4.141-.032,5.313-.118.667-.049.737-.431.737-1.069v-3.011c0-.691-.1-.99-.8-1.032l-4.492,0c-.7,0-.816.019-.816-.907,0-1.737-.071-4.548.062-6.165.68-.277,4.142-.032,5.311-.118.677-.05.736-.435.736-1.079v-2.944c0-.9-.162-1.092-1.073-1.092h-9.361C335.384,243.755,335.223,243.967,335.223,244.847ZM311.7,269.964c-.194-.71-.087-9.088-.087-10.529V246.186c0-2.746.419-2.431-2.971-2.431-.7,0-2.062-.207-2.329.368-.188.406-.087,25.068-.087,29.23,0,2.365-.392,1.835,6.164,1.835h2.677c.688,0,2.1.211,2.343-.36a14.932,14.932,0,0,0,.087-2.613c0-.825.225-1.967-.568-2.119C315.678,269.857,312.7,270.32,311.7,269.964ZM262.925,248.7c-.875.2-1.048.989-1.115,1.977-.129,1.9-.035,7.189-.035,9.293v6.156c0,1.712-.305,4.713,2.052,4.108,1.43-.367,1.089-3.452,1.089-5.044V252.81C264.915,251.138,265.227,248.167,262.925,248.7Zm15.463.9v9.368c0,.325-.045.544.127.747a2.2,2.2,0,0,0,1.551,0,1.571,1.571,0,0,0,1-.88c.626-1.184.464-4.306.464-5.888,0-1.689.035-4.081-1.939-4.276-1.1-.108-1.2-.071-1.2.931" transform="translate(-89.618 0)" fill="#1c1c1a" fill-rule="evenodd"/>
    <path id="Path_6032" data-name="Path 6032" d="M722.37,263.927v-1.3c-.113-.223-.141-.564-.245-.842-1.419-3.8-8.786-3.5-8.861,1.425-.065,4.244,5.124,4.947,7.544,3.257A4.3,4.3,0,0,0,722.37,263.927ZM720.31,251.5c-.012.01-.035.008-.042.03-.035.108-6.294,2.3-6.786,2.569,0,1.811-.246,1.532.99,1.531l7.365,0c.4-.041.347-.082.308-1.164l-6.405-.02a9.761,9.761,0,0,1,1.589-.628c.556-.21,1.064-.4,1.613-.6a18.542,18.542,0,0,0,3.169-1.274l.04-.958-6.286-2.32,6.24-.036.047-1.239-8.643-.01a9.031,9.031,0,0,0-.029,1.3c.032.44.4.43.815.583C715.1,249.573,719.992,251.292,720.31,251.5Zm-3.086,8.874c-1.831.205-3.266,1.348-2.892,3.454.612,3.446,7.7,3.184,6.967-1.15C721.006,260.944,719.209,260.155,717.224,260.376Zm5.146,14.617v-1.039c-.142-.388-.147-.81-.35-1.292a3.706,3.706,0,0,0-2.95-2.114l.028,1.216a2.475,2.475,0,0,1,2.183,3.075c-.284,1.415-1.6,2.036-3.259,2.093-3.49.12-4.317-2.382-3.447-4.048a2.15,2.15,0,0,1,1.654-1.036l.008-1.19a3.114,3.114,0,0,0-2.931,2.841c-.6,4.03,3.178,5.317,6.341,4.46,2.441-.661,2.455-2.378,2.723-2.964" transform="translate(-436.289 -2.774)" fill="#1c1c1a" fill-rule="evenodd"/>
    <path id="Path_6033" data-name="Path 6033" d="M701.579,349.061h1.605l.016-1.615-1.626-.008,0,1.623" transform="translate(-428.024 -73.649)" fill="#1c1c1a" fill-rule="evenodd"/>
  </g>
</svg>
