<?xml version="1.0" encoding="utf-8"?>
<!-- Generator: Adobe Illustrator 21.1.0, SVG Export Plug-In . SVG Version: 6.00 Build 0)  -->
<svg version="1.1" id="Layer_1" xmlns="http://www.w3.org/2000/svg" xmlns:xlink="http://www.w3.org/1999/xlink" x="0px" y="0px"
	 viewBox="0 0 452.7 136.4" style="enable-background:new 0 0 452.7 136.4;" xml:space="preserve">
<style type="text/css">
	.st0{fill:#505152;}
	.st1{fill:#239A48;}
	.st2{fill:#231F20;}
</style>
<g>
	<g>
		<path class="st0" d="M216.5,47.5c5,0,9.7,1.9,13,5.2l1.2,1.2l5.6-5.4l-1.3-1.2c-5-4.9-11.6-7.6-18.6-7.6
			c-15.4,0-26.2,10.7-26.2,26c0,15.1,11,26,26.2,26c7,0,13.6-2.7,18.6-7.6l1.2-1.2l-5.6-5.6l-1.2,1.2c-3.4,3.4-8.1,5.4-12.9,5.4
			c-9,0-18.1-5.6-18.1-18.1C198.2,53.1,207.4,47.5,216.5,47.5"/>
		<path class="st0" d="M282.6,46.8c-2-2.2-4.5-3.9-7.3-5.2c-3.2-1.4-6.7-2.2-10.5-2.2c-14.8,0-25.9,11.2-25.9,26.1
			c0,15,11.1,26.3,25.9,26.3c3.7,0,7.1-0.7,10.3-2.2c2.8-1.3,5.3-3.1,7.4-5.4v6.7h8.2v-51h-8.2v6.9
			C282.5,46.8,282.6,46.8,282.6,46.8z M265,83.8c-10.3,0-17.7-7.7-17.7-18.2s7.5-18.1,17.7-18.1c12.5,0,18.1,9.4,18.1,18.2
			c0,4.8-1.6,9.2-4.5,12.5C275.2,81.8,270.6,83.8,265,83.8"/>
		<path class="st0" d="M334.6,65.1c-4-2.2-9.1-3-13.3-3.7l-1.7-0.3c-6.7-1.2-12.3-2.5-12.4-6.9c0-1.4,0.4-2.6,1.4-3.7
			c2-2.1,6.1-3.3,10.8-3.3h0.4c5.1,0,9.4,0.8,13.7,4.6l1.3,1.1l5.2-5.6l-1.3-1.2c-4.8-4.5-11.2-6.8-18.9-6.8h-0.4
			c-7,0-13,2.1-16.6,5.6c-2.5,2.5-3.8,5.7-3.7,9.4c0.1,5,2.3,8.6,6.8,10.9c3.9,2,8.8,2.8,13.1,3.6c8.3,1.3,14.2,2.7,14,7.7
			c-0.3,6.7-9.2,7.4-13.1,7.4c-6.8,0-12.8-2.7-16-7.3l-1.1-1.6l-6,5.4l0.8,1.3c4.2,6.5,12.5,10.3,22.3,10.3c2.6,0,7.7-0.3,12.3-2.2
			c2.6-1.1,4.7-2.6,6.2-4.5c1.8-2.2,2.7-5,2.8-8.2c0.1-2.8-0.5-5.3-1.7-7.4C338.4,67.7,336.7,66.3,334.6,65.1"/>
		<path class="st0" d="M376.1,82.2c-2.4,1.1-4.7,1.8-6.6,1.8c-5.3,0-7-2.2-7-9.2V47.5h16.2v-7.4h-16.2v-20h-8.1v20h-10.1v7.4h10.1
			v27.3c0,5.8,1.2,9.9,3.7,12.8c2.5,2.8,6.3,4.3,11.4,4.3c2.9,0,6.1-0.8,9.7-2.6l1.5-0.7l-3-7L376.1,82.2z"/>
		<rect x="386.1" y="20.1" class="st0" width="8.2" height="71"/>
		<path class="st0" d="M446.7,47c-4.5-5-11.5-7.8-19.5-7.8c-14.8,0-25.9,11.3-25.9,26.3c0,3.8,0.6,7.3,1.9,10.6c1.2,3.2,3,6,5.3,8.3
			s5.1,4.2,8.2,5.4c3.2,1.3,6.7,1.9,10.5,1.9c8.9,0,17.3-3.8,21.9-9.8l1-1.4l-6.1-4.9l-1.1,1.4c-2.9,3.8-9.4,6.5-15.8,6.5
			c-7.5,0-15.7-4.4-17.4-14.1h42.6l0.2-1.6C453.4,59.3,451.4,52.1,446.7,47 M427.4,47.1c10.3,0,16.7,5.4,17.4,14.8H410
			C411.6,52.9,418.2,47.1,427.4,47.1"/>
		<polygon class="st1" points="44.5,41.8 54.9,77.5 65.9,41.8 78.9,41.8 62.3,89.5 48.7,89.5 43.8,75.5 39.4,59.6 30.4,89.5 
			16.6,89.5 0,41.8 13.1,41.8 23.9,77.5 34.3,41.8 		"/>
		<path class="st1" d="M90.4,69.8c0.8,5.9,5.9,10.1,14.2,10.1c4.3,0,10-1.6,12.7-4.4l7.5,7.4c-5,5.2-13.2,7.7-20.4,7.7
			c-16.4,0-26.1-10.1-26.1-25.3c0-14.4,9.8-24.8,25.2-24.8c15.9,0,25.8,9.8,24,29.4L90.4,69.8L90.4,69.8z M116.2,60.1
			c-0.8-6.2-5.6-9.2-12.3-9.2c-6.4,0-11.6,3.1-13.3,9.2H116.2z"/>
		<polygon class="st1" points="172.7,11.8 180.5,0 148,0 148,23.5 180.5,23.5 		"/>
		<path class="st1" d="M144.4,0h-11.7v65.7v0.1c0,0.1,0,0.2,0,0.3c0,0,0,0,0,0.1c0.1,8.7,4.6,16.4,11.2,21c4.2,2.9,9.4,4.7,14.9,4.7
			c4.9,0,9.5-1.4,13.5-3.7c7.5-4.6,12.5-12.8,12.5-22.3c0-14.4-11.7-26.1-26.1-26.1c-3.8,0-7.5,0.8-10.8,2.3v14.3
			c2.6-3,6.5-4.9,10.8-4.9c2.3,0,4.4,0.5,6.3,1.4c1.2,0.6,2.4,1.3,3.3,2.3c2.9,2.6,4.7,6.4,4.7,10.6c0,7.9-6.4,14.3-14.3,14.3
			c-7.9,0-14.3-6.4-14.3-14.3c0-0.3,0-0.6,0-0.9L144.4,0L144.4,0z"/>
	</g>
	<g>
		<path class="st2" d="M73.9,122.7h-5.2v-1h11.5v1H75v13.4h-1.1C74,136.1,74,122.7,73.9,122.7z"/>
		<path class="st2" d="M92.8,136.1v-6.6h-9.2v6.6h-1.1v-14.4h1.1v6.9h9.2v-6.9h1.1v14.4H92.8z"/>
		<path class="st2" d="M97,136.1v-14.4h1.1v14.4H97z"/>
		<path class="st2" d="M101.7,121.7l9.7,11.9v-11.9h1.1v14.4h-0.4l-9.7-11.9v11.9h-1.1v-14.4C101.3,121.7,101.7,121.7,101.7,121.7z"
			/>
		<path class="st2" d="M126,136.1h-1.4L117,129v7.1h-1.1v-14.4h1.1v6.6l7-6.6h1.3v0.1l-7.3,6.8L126,136.1L126,136.1z"/>
		<path class="st2" d="M183.4,125.6c0,1.5-0.9,2.6-2.3,3.1c1.8,0.5,2.8,2,2.8,3.6c0,3-2.8,3.8-5.2,3.8c-2.1,0-3.8,0-5.9,0v-14.4
			c2.1,0,3.8,0,5.9,0C181,121.7,183.4,122.9,183.4,125.6z M173.9,128.2h4.9c1.7,0,3.5-0.5,3.5-2.6s-1.9-3-3.7-3h-4.8v5.6H173.9z
			 M173.9,135h4.8c1.8,0,4.1-0.4,4.1-2.7c0-2.2-2.1-3-4-3c-1.7,0-3.2,0-4.9,0L173.9,135L173.9,135z"/>
		<path class="st2" d="M197.5,121.7v9c0,7.5-11,7.6-11,0v-9h1.1v9c0,6.2,8.9,6.2,8.9,0v-9H197.5z"/>
		<path class="st2" d="M200.7,136.1v-14.4h1.1v14.4H200.7z"/>
		<path class="st2" d="M206,121.7v13.4h8.1v1.1h-9.2v-14.4L206,121.7L206,121.7L206,121.7z"/>
		<path class="st2" d="M228.4,128.7c0.1,3.7-2.3,7.4-7.3,7.4c-1.6,0-3.3,0-4.9,0v-14.4c1.6,0,3.3,0,4.9,0
			C226,121.7,228.2,125.2,228.4,128.7z M217.2,122.7V135h3.8c4.3,0,6.3-3.2,6.2-6.3c-0.1-3-2-6-6.2-6H217.2z"/>
		<path class="st2" d="M288.1,134.1c-1.4,1.4-3.4,2.2-5.3,2.2c-4.9,0-7.4-3.4-7.4-7.3c0-3.9,2.5-7.5,7.4-7.5c1.9,0,3.8,0.7,5.3,2.2
			l-0.8,0.7c-1.2-1.2-2.9-1.8-4.5-1.8c-4.2,0-6.4,3-6.3,6.4c0,3.4,2.2,6.3,6.3,6.3c1.6,0,3.3-0.6,4.5-1.8L288.1,134.1z"/>
		<path class="st2" d="M304.6,128.9c0,3.8-2.4,7.4-7.3,7.4c-4.8,0-7.3-3.7-7.3-7.5c0-3.9,2.4-7.4,7.3-7.4
			C302.2,121.5,304.6,125,304.6,128.9z M291.1,128.9c0,3.3,2.1,6.4,6.2,6.4s6.2-3.2,6.2-6.4c0-3.3-2.1-6.4-6.2-6.4
			S291.1,125.5,291.1,128.9z"/>
		<path class="st2" d="M307.7,121.7l9.7,11.9v-11.9h1.1v14.4h-0.4l-9.8-11.9v11.9h-1.1v-14.4C307.2,121.7,307.7,121.7,307.7,121.7z"
			/>
		<path class="st2" d="M322.2,121.7l9.7,11.9v-11.9h1.1v14.4h-0.4l-9.7-11.9v11.9h-1.1v-14.4C321.8,121.7,322.2,121.7,322.2,121.7z"
			/>
		<path class="st2" d="M337.4,128.3h8.4v1h-8.4v5.7h9.1v1.1h-10.2v-14.4h10v1.1h-8.9V128.3z"/>
		<path class="st2" d="M360.9,134.1c-1.4,1.4-3.4,2.2-5.3,2.2c-4.9,0-7.4-3.4-7.4-7.3c0-3.9,2.5-7.5,7.4-7.5c1.9,0,3.8,0.7,5.3,2.2
			l-0.8,0.7c-1.2-1.2-2.9-1.8-4.5-1.8c-4.2,0-6.4,3-6.3,6.4c0,3.4,2.2,6.3,6.3,6.3c1.6,0,3.3-0.6,4.5-1.8L360.9,134.1z"/>
		<path class="st2" d="M367.4,122.7h-5.2v-1h11.4v1h-5.2v13.4h-1.1v-13.4C367.3,122.7,367.4,122.7,367.4,122.7z"/>
	</g>
	<circle class="st1" cx="148.9" cy="128.9" r="4.9"/>
	<circle class="st1" cx="252.4" cy="128.9" r="4.9"/>
</g>
</svg>
