<svg id="Layer_1" data-name="Layer 1" xmlns="http://www.w3.org/2000/svg" viewBox="0 0 85 62"><path d="M71.17,31.58C70.79,21.49,66,13.07,56.52,7.44,55.83,7,54.89,6,54.21,7.16s.72,1.42,1.4,1.81a26.68,26.68,0,0,1,11,34.9c-.41.86-.62,1.65-1.88.78s-2.11-.36-2.34,1.25c-.2,1.34-.35,2.68-.58,4-.29,1.75.52,2.5,2.23,1.92,1.33-.45,2.59-1.06,3.91-1.55.65-.24,1.18-.55,1.32-1.28a1.41,1.41,0,0,0-.86-1.6c-1-.54-.9-1.14-.41-2C70.2,41.34,71.06,37,71.17,31.58ZM63.75,50c.2-1.34.34-2.31.49-3.37a10.46,10.46,0,0,1,2.58,1.84C66,49.3,64.93,49.44,63.75,50Z"/><path d="M57,55a8.81,8.81,0,0,0-.77.47,26.77,26.77,0,0,1-35.09-6.74C19.87,47,19.87,47,21.73,46c1.28-.7,1.4-1.67.21-2.52Q19.87,42,17.68,40.75c-1-.61-1.91-.12-2,1.09-.16,1.64-.27,3.3-.32,4.95,0,1.35.58,1.84,1.87,1.43.81-.26,1.29-.15,1.7.61a9.39,9.39,0,0,0,1,1.27,28.64,28.64,0,0,0,30.92,9.75,29.13,29.13,0,0,0,7.08-3.26c.53-.34.84-.78.52-1.38S57.55,54.72,57,55ZM18,45.78a6.48,6.48,0,0,1-.8.25c.08-1.12-.22-2.54.42-2.73.87-.27,1.73.77,2.67,1.44C19.38,45.14,18.67,45.47,18,45.78Z"/><path d="M15.63,32.57C15.8,18.77,25.13,8,38.88,5.8c1.14-.19,1.63-.07,1.6,1.26,0,1.67,1,2.18,2.35,1.34S45.4,6.82,46.65,6s1.31-1.86,0-2.63-2.74-1.49-4.14-2.17S40.29,1,40.35,2.54C40.38,3.6,40,3.83,39,4,24.57,6.09,14.15,17.52,13.83,31.52c0,.35,0,.7,0,1.05,0,.69-.15,1.61.84,1.65S15.63,33.31,15.63,32.57ZM42.23,4.88c0-.49,0-1,0-1.71a14.82,14.82,0,0,1,1.37.67c.45.27,1.24.33,1.27.87s-.75.7-1.19,1-.73.73-1.16.53S42.27,5.35,42.23,4.88Z"/><path d="M64.4,40.66c.47-1.55.15-3.13.23-4.7a3.46,3.46,0,0,0-1.57-3c-1.46-1.15-3.25-1.43-4.93-2-.26-.09-.65,0-.7-.39s.36-.42.59-.56a4.86,4.86,0,0,0,2.45-3.79,22,22,0,0,0-.08-5.61,4.84,4.84,0,0,0-5-4.09,5,5,0,0,0-4.93,4.18,29,29,0,0,0-.12,4.27,5.45,5.45,0,0,0,2.56,5c.2.12.58.12.54.47s-.4.37-.69.45a15,15,0,0,0-4.49,1.63,1.81,1.81,0,0,1-1.89.18c-.27-.1-.65-.13-.7-.48s.31-.52.61-.68a5.34,5.34,0,0,0,2.9-4.14,22.84,22.84,0,0,0,0-6.18,5.56,5.56,0,0,0-6-4.75A5.78,5.78,0,0,0,38,22.26a31.26,31.26,0,0,1,0,3.49,5.76,5.76,0,0,0,3.13,5.83c.38.2.51.62.21.8-.66.38-1.46.89-2.2.36a17.59,17.59,0,0,0-4.76-1.84c-.24-.08-.55,0-.63-.35s.27-.41.46-.53a4.73,4.73,0,0,0,2.58-3.93,26.92,26.92,0,0,0-.13-5.95,2.76,2.76,0,0,0-.3-.83c-1.26-2.35-3.28-3.22-6.05-2.63a5.13,5.13,0,0,0-3.62,4.85c-.05,1.12,0,2.25,0,3.37A5.52,5.52,0,0,0,29.22,30c.2.14.68.13.54.57s-.47.3-.76.38c-1.7.53-3.49.84-4.95,2A3.4,3.4,0,0,0,22.4,36c.09,1.12,0,2.26,0,3.38a3.49,3.49,0,0,0,3.73,3.81c2,.05,3.91,0,5.86,0a1.4,1.4,0,0,1,1.57.89,4,4,0,0,0,4,2.36c4.09,0,8.19,0,12.28,0a3.84,3.84,0,0,0,3.67-2.46,1.09,1.09,0,0,1,1.19-.76h3.26v0c1.17,0,2.33,0,3.49,0A3.2,3.2,0,0,0,64.4,40.66Zm-5.54-21c.15.31.32.77-.17,1-.92.35-2,.7-2.75-.05a3.44,3.44,0,0,0-3.62-1C54.11,17,57.71,17.23,58.86,19.61Zm-7.31,5.87c0-1,0-2,0-3s.77-1.35,1.49-1.75a1.22,1.22,0,0,1,1.68.41c1,1.26,2.45,1.23,3.81.87.76-.21.85,0,.83.61s0,1.05,0,1.58h0c0,.45,0,.9,0,1.35a4,4,0,0,1-3.82,3.94A4.14,4.14,0,0,1,51.55,25.48Zm2.33,6.38c.49-.12.91-.34,1-.93,0-.22.18-.31.39-.31.42,0,.63.2,1,.5,1.38,1.27,1.44,2.45.09,3.69a1.39,1.39,0,0,1-1.93,0,2.43,2.43,0,0,1-.93-1.87C53.4,32.26,53.45,32,53.88,31.86Zm-8-13.56a5.14,5.14,0,0,1,1.23,1.1c.89,1.11.67,1.79-.71,2a2.68,2.68,0,0,1-2.68-.67,2.7,2.7,0,0,0-3.86-.54A4.19,4.19,0,0,1,45.89,18.3Zm-6.58,8.58c0-1.27,0-2.55,0-3.82s1-1.63,1.79-2.14,1.25.15,1.71.62a3.67,3.67,0,0,0,4.41.88c.8-.36,1-.09.91.66s0,1.2,0,2.12a6.41,6.41,0,0,1-.66,3.6,4.6,4.6,0,0,1-5,2A4.37,4.37,0,0,1,39.31,26.88Zm1.89,7.29c.07-.55.52-.54.92-.62a.71.71,0,0,0,.62-.81c0-.76.55-.39.75-.49.56,0,.95-.08.91.58a.65.65,0,0,0,.57.73c1.07.09.91.78.77,1.47-.3,1.51-1.42,2.65-2.44,2.48a3.24,3.24,0,0,1-2.1-3.22ZM35,19.39c.53.75.4,1.14-.47,1.35a2.46,2.46,0,0,1-2.83-.68c-.81-1-1.94-.7-3.11-.6A3.83,3.83,0,0,1,35,19.39Zm-7.13,6.05c0-.87.07-1.74,0-2.59-.12-1.15.57-1.68,1.42-2.15s1.4,0,1.94.59a3.34,3.34,0,0,0,3.56.69c.79-.21.92-.06.88.65,0,.52,0,1.05,0,1.58,0,1.3.11,2.62-.85,3.71a3.67,3.67,0,0,1-4,1.34A4.06,4.06,0,0,1,27.86,25.44Zm3.88,5.17a5.64,5.64,0,0,1,1.91,2.06c0,1.24-1,2.51-2,2.52s-2-1.31-1.95-2.6A7.5,7.5,0,0,1,31.74,30.61Zm1.43,8.21c.13,1,.46,2.27-.17,2.93s-2,.19-3,.24c-1.24,0-2.48,0-3.72,0a2.41,2.41,0,0,1-2.62-2.57c0-.9,0-1.8,0-2.7a3.56,3.56,0,0,1,2.89-3.8,8.52,8.52,0,0,0,.86-.26c.72-.27,1.12-.29,1.2.73A3.42,3.42,0,0,0,31,36.31a3.14,3.14,0,0,0,3.56-2.19c.18-.55.12-1.51.62-1.55a3.72,3.72,0,0,1,2.48.84,20.18,20.18,0,0,0-2,1C34.08,35.4,32.9,36.64,33.17,38.82Zm19.52.56a20.25,20.25,0,0,0,0,2.7,2.94,2.94,0,0,1-3.12,3c-2-.13-4,0-6.07,0H37.4a2.74,2.74,0,0,1-3-2.74,37.82,37.82,0,0,1,0-4.39c.12-1.74,1.6-2.34,2.89-3a3.94,3.94,0,0,1,2.22-.68c1,.17.45,1.23.76,1.86,1.12,2.28,2.87,3.16,4.72,2.13a3.84,3.84,0,0,0,1.89-2.87c.26-1.35.29-1.35,1.6-.89a14.7,14.7,0,0,1,1.87.72A3.74,3.74,0,0,1,52.69,39.38Zm10.73-.06A2.52,2.52,0,0,1,60.75,42c-2,0-4,0-6,0-.67,0-1-.2-.93-.9s-.06-1.58,0-2.36c.22-2.2-1.06-3.46-2.74-4.46-.53-.32-1.11-.56-1.73-.87a5.25,5.25,0,0,1,2.28-.91c.32-.11.49.09.49.42a3.6,3.6,0,0,0,.55,1.68,2.77,2.77,0,0,0,3,1.74,3.26,3.26,0,0,0,2.55-2.21c.56-1.68.56-1.68,2.21-1.23a3.62,3.62,0,0,1,3,3.83C63.42,37.6,63.44,38.46,63.42,39.32Z"/></svg>