<svg id="Layer_1" data-name="Layer 1" xmlns="http://www.w3.org/2000/svg" viewBox="0 0 85 62"><path d="M49.35,41.12C57.53,37.55,61.18,31,60.43,22a9.59,9.59,0,0,0-.89-3.75c-.24-.43-.58-.76-1.16-.52a.82.82,0,0,0-.45,1c.14.68.4,1.34.57,2C60.88,30.75,52.62,41,42.59,40.6a25.89,25.89,0,0,1-3.87-.37A16.31,16.31,0,1,1,48.16,9.06c.63.22,1.12.51,1.45-.23s0-1.17-.77-1.45a17.4,17.4,0,0,0-13.28.25A18,18,0,0,0,27,33.6,17.75,17.75,0,0,0,49.35,41.12Z"/><path d="M47.9,45.16a9.86,9.86,0,0,0-2.79,1,4.94,4.94,0,0,1-5.28,0,9.65,9.65,0,0,0-2.79-1,3.07,3.07,0,0,0-3.56,2.67,3.24,3.24,0,0,0,3.06,3.23,6.74,6.74,0,0,0,2.36-.61c.42-.12.88-.64,1.3-.25s0,.83-.22,1.25c-.82,1.88-1.58,3.79-2.4,5.67-.27.63-.61,1.29.21,1.66s1.1-.31,1.38-.93c.88-2,1.8-4,2.68-5.94.14-.32.15-.71.62-.7s.43.45.57.75c.88,2,1.8,3.95,2.69,5.93.28.62.56,1.29,1.39.87s.48-.93.21-1.53c-.91-2-1.76-4.09-2.64-6.13-.15-.34-.35-.66,0-1s.54,0,.82.09c1,.19,1.78,1,2.79.81a3.07,3.07,0,0,0,3.16-3.29A2.94,2.94,0,0,0,47.9,45.16ZM36.64,49.09c-.73.06-1.26-.26-1.17-1.14s.66-1.31,1.45-1.08A18,18,0,0,1,39.41,48,3.7,3.7,0,0,1,36.64,49.09Zm12.72-.48c-.21.54-.73.51-1.19.47a4.1,4.1,0,0,1-2.64-1c.85-.42,1.56-.81,2.3-1.14a1.06,1.06,0,0,1,1.41.34A1.38,1.38,0,0,1,49.36,48.61Z"/><path d="M40.07,26.89c-1.4.21-2.16-1.85-3.36-2.75-.47-.35-.83-1.08-1.43-.55s-.4,1.3.16,1.87q1.73,1.77,3.49,3.5a1.17,1.17,0,0,0,1.92,0c5.31-5.4,10.68-10.74,16-16.09a1.81,1.81,0,0,0,.63-1.07.91.91,0,0,0-1.24-.61c-.5.13-.75.54-1.08.87L43.24,24C42.2,25,41.25,26.71,40.07,26.89Z"/><path d="M64,38.21c-1.35,0-2.87,1.73-2.88,3.27-.05.93.21,1.67,1.3,1.67a3.31,3.31,0,0,0,2.87-3.26C65.3,39,65.2,38.2,64,38.21Z"/><path d="M17.16,37.39a4.26,4.26,0,0,0-2.85-2.17,2.41,2.41,0,0,0-2.1.69,1.12,1.12,0,0,0,0,1.34,3.78,3.78,0,0,0,2.88,2C16.8,39.18,17.69,38.32,17.16,37.39Z"/><path d="M67.81,42.78c-1.23-.17-3.21,1.23-3.08,2.15.2,1.42,1.53,1.19,2.36,1.47,1.59,0,3.46-1.15,3.24-2.06C70,43.1,68.84,42.92,67.81,42.78Z"/><path d="M54.26,50.67c-1.16,0-2.71.31-2.62,1.73s1.58,1.63,2.79,1.88c1.21-.25,2.67-.6,2.65-1.89C57.06,50.91,55.52,50.61,54.26,50.67Z"/><path d="M74.06,27.67c-1.45,0-3,1.83-3,3.82,0,.55.21,1.25,1.12,1.29,1.39,0,2.92-1.74,2.9-3.45C75.08,28.65,75.29,27.68,74.06,27.67Z"/><path d="M64.23,33c0,1.27.21,2.42,1.6,2.63.91.14,2.13-1.59,2-2.89s-.45-2.73-1.72-2.59A2.49,2.49,0,0,0,64.23,33Z"/><path d="M23.2,47.47c-1,0-2.36,0-2.58,1.46-.12.9,1.55,2.07,3.13,2.09.86-.08,2.22-.19,2.17-1.62S24.48,47.47,23.2,47.47Z"/><path d="M14,31.53c.4-1.42-1.62-3.87-3.1-3.86a.8.8,0,0,0-1,.73,3.37,3.37,0,0,0,2.36,4.1C13.32,32.83,13.79,32.32,14,31.53Z"/><path d="M30.65,50.66c-1.22,0-2.67.3-2.71,1.67s1.4,1.66,2.28,1.88c1.53,0,3.26-1,3.11-1.84C33.07,50.91,31.83,50.69,30.65,50.66Z"/><path d="M30.85,46.66a3.61,3.61,0,0,0-3.53-2.85c-1,.13-1.77.7-1.26,1.78s1.33,2.43,3,2.28C29.9,47.8,31,48.17,30.85,46.66Z"/><path d="M62,47.46c-1.52-.15-3.25,1-3,2A2,2,0,0,0,60.87,51c1.91,0,3.51-1.07,3.46-2C64.26,47.5,63,47.55,62,47.46Z"/><path d="M68.57,23c-1.51-.1-1.39,1.43-1.57,2.31,0,1.54,1.2,3.46,1.94,3.17a2.73,2.73,0,0,0,1.6-2.7C70.51,24.54,70,23.12,68.57,23Z"/><path d="M16.1,28.51c.78.23,2-1.72,1.94-3.18-.29-.81-.08-2.11-1.46-2.37-.9-.17-2.24,1.58-2.07,2.85C14.66,26.87,14.82,28.15,16.1,28.51Z"/><path d="M58.39,44c-1.28-.6-2.27.11-3.24.72A2.39,2.39,0,0,0,54.34,46c-.34,1.11-.28,2,1.3,1.81,1.69.21,2.62-.8,3.21-2.15A1.14,1.14,0,0,0,58.39,44Z"/><path d="M17.28,43c-1,.1-2.28,0-2.45,1.44-.12,1,1.46,2,3,2,.86-.22,2.11-.14,2.37-1.46C20.4,44.07,18.6,42.83,17.28,43Z"/><path d="M21.14,38.26c-1.28-.1-1.28.87-1.31,1.64-.06,1.62,1.47,3.31,2.86,3.26,1.11,0,1.1-.83,1.06-1.48A3.28,3.28,0,0,0,21.14,38.26Z"/><path d="M17.32,33c.06,1.28.54,2.49,1.93,2.45s1.32-1.39,1.42-2.43c0-1.33-1.12-3.23-1.89-3C17.34,30.45,17.26,31.74,17.32,33Z"/><path d="M72,35.39a2.75,2.75,0,0,0-3,2.7c-.14.59-.34,1.21.77,1.2,1.4,0,3.22-1.44,3.28-2.69A1.05,1.05,0,0,0,72,35.39Z"/><path d="M67.43,13.48c.86.2,1.17-.75,1.1-1.58a2.14,2.14,0,0,0-1.79-2.62c-1-.17-1.34.75-1.34,1.65A2.54,2.54,0,0,0,67.43,13.48Z"/><path d="M17.52,13.46a2.25,2.25,0,0,0,2-2.56c.07-.78,0-1.55-1-1.67s-2,1.27-2.09,2.42C16.3,12.59,16.71,13.61,17.52,13.46Z"/><path d="M74.36,19.49a2.3,2.3,0,0,0-2,2.51c0,.8,0,1.86,1.18,1.75,1.4-.13,1.86-1.22,1.94-2.63C75.33,20.51,75.55,19.31,74.36,19.49Z"/><path d="M21,7c1.08.13,2.61-1.5,2.52-2.7-.05-.68-.3-1.28-1.18-1.21a2.35,2.35,0,0,0-2.23,2.46C20.12,6.27,20.16,6.94,21,7Z"/><path d="M63.88,7c.87,0,.95-.7,1-1.19a2.56,2.56,0,0,0-2.21-2.72c-1.11-.05-1,.72-1,1.42A2.48,2.48,0,0,0,63.88,7Z"/><path d="M11.33,23.74c1.23.14,1.11-.93,1.2-1.69a2.25,2.25,0,0,0-2-2.55c-1.05-.11-1.1,1-1.08,1.85C9.5,22.59,10,23.59,11.33,23.74Z"/><path d="M67.08,18.15c.06.91.16,1.94,1.44,2s1-1.12,1.33-1.75c-.09-1.09-.51-2.14-1.48-2.19S67,17.22,67.08,18.15Z"/><path d="M16.43,20.15c1.27,0,1.38-1.07,1.43-2s-.23-1.93-1.13-1.9a1.61,1.61,0,0,0-1.52,1.91C15.26,19.22,15.28,20.16,16.43,20.15Z"/><path d="M12.83,16.65c.85,0,1.37-.87,1.33-1.88s-.22-2-1.4-2-1,1.07-1.15,1.77C11.64,15.55,11.88,16.62,12.83,16.65Z"/><path d="M72,16.66c1,.05,1.24-1,1.31-2.09-.13-.65,0-1.74-1.07-1.78s-1.42,1-1.49,2S71.29,16.62,72,16.66Z"/></svg>