<svg xmlns="http://www.w3.org/2000/svg" width="69.967" height="78.488" viewBox="0 0 69.967 78.488">
  <path id="Path_5948" data-name="Path 5948" d="M-166.1,213.5c-4.871-.18-13.26,2.616-13.8,13.982-.09.9-.992,10.915,4.24,16.779a12.439,12.439,0,0,0,9.382,4.059h.361a12.439,12.439,0,0,0,9.382-4.059c5.142-5.863,4.33-15.876,4.24-16.779C-152.933,216.115-161.232,213.319-166.1,213.5Zm7.307,28.776a9.625,9.625,0,0,1-7.307,3.067h-.18a9.156,9.156,0,0,1-7.307-3.067c-4.42-4.961-3.518-14.433-3.428-14.523v-.09c.18-4.781,1.985-8.119,5.232-9.833a11.343,11.343,0,0,1,5.322-1.353h.271a11.208,11.208,0,0,1,5.5,1.353c3.247,1.714,4.961,5.052,5.232,9.833v.09C-155.368,227.842-154.376,237.314-158.8,242.275Zm13.621,15.065a42.081,42.081,0,0,1-12.449-5.683l1.714-2.436h0a39.847,39.847,0,0,0,11.456,5.232c4.33,1.083,6.495,5.232,6.044,11.276-.09,1.082-.361,4.781-.631,5.773l-2.887-.812c.09-.451.361-3.067.541-5.142C-141.206,262.842-141.386,258.242-145.175,257.34Zm-29.317-5.683a42.081,42.081,0,0,1-12.449,5.683c-3.789.992-3.969,5.5-3.789,8.119a42.68,42.68,0,0,0,.541,5.232l-2.887.812c-.271-1.082-.541-4.961-.631-5.773-.451-6.044,1.8-10.193,6.044-11.276a39.847,39.847,0,0,0,11.456-5.232Zm8.3,40.323,5.773-5.232-1.443-31.031a5.885,5.885,0,0,0,1.624-4.059h-2.977a2.85,2.85,0,0,1-2.887,2.887,2.85,2.85,0,0,1-2.887-2.887h-2.977a6.255,6.255,0,0,0,1.353,3.789l-1.353,31.392Zm1.443-34.64,1.263,28.054-2.706,2.436-2.706-2.436,1.173-28.235a4.731,4.731,0,0,0,1.624.18A1.744,1.744,0,0,0-164.75,257.34Zm25.619-11.366,10.284-10.284h-3.789v-2.977h8.84v8.84h-2.977v-3.7l-12.358,12.358-6.946-6.946-4.51,4.51-2.165-2.165,6.585-6.585Z" transform="translate(193.763 -213.491)"/>
</svg>
