<svg xmlns="http://www.w3.org/2000/svg" width="86.215" height="62.673" viewBox="0 0 86.215 62.673">
  <path id="Path_5956" data-name="Path 5956" d="M24.647,39.221c-6.855,8.365-12.724,21.728-10.1,27a4.01,4.01,0,0,0,3.8,2.286c.141,0,.283-.006.43-.015,2.521-.19,4.85-2.551,8.37-6.125a101.12,101.12,0,0,1,7.56-7.124A28.148,28.148,0,0,0,48.1,49.849a78.7,78.7,0,0,0,26.689,4.916c5.849,0,10.566-.848,12.8-2.458a1.537,1.537,0,0,0,.581-1.661C86.323,44,78.244,36.927,64.189,29.636c1.642-3.151,3.218-6.571,4.72-10.293l7.978-8.36a1.535,1.535,0,0,0,.286-1.706,1.457,1.457,0,0,0-1.483-.894L64.216,9c-3.307-2.373-6.178-3.366-10.545-1.635-4.856,1.925-6.125,6.441-7.248,10.427-.28,1-.56,1.995-.894,2.933a4.758,4.758,0,0,1-.535,1C32.087,12.489,9.182,3.933,3.01,6.2a1.547,1.547,0,0,0-1,1.447C2.023,15.816,16.249,31.306,24.647,39.221ZM84.812,50.345c-5.2,2.27-20.559,1.92-33.907-2.736a58.438,58.438,0,0,0,11.814-15.27C74.98,38.7,82.584,44.891,84.812,50.345ZM49.389,18.627c1.017-3.616,1.98-7.034,5.418-8.4,3.242-1.288,5.087-.594,7.871,1.451a1.378,1.378,0,0,0,.695.37,1.511,1.511,0,0,0,.184.021,1.416,1.416,0,0,0,.294.033l8.126-.436-5.462,5.725-.023.024-.009.009a1.433,1.433,0,0,0-.091.144,1.491,1.491,0,0,0-.225.343C55.41,44.743,42.7,51.383,33.935,52.226a1.567,1.567,0,0,0-.83.343A103.074,103.074,0,0,0,24.952,60.2c-2.7,2.744-5.036,5.111-6.405,5.214-.863.057-1.083-.247-1.243-.569-1.719-3.462,3.2-16.3,10.589-24.712l0,0s0,0,0-.007l.017-.02A63.637,63.637,0,0,1,39.847,30.086c4.179-2.921,7.479-5.232,8.583-8.325C48.788,20.76,49.089,19.7,49.389,18.627ZM42.879,24c-1.321,1.131-3,2.3-4.8,3.565a71.906,71.906,0,0,0-11.364,9.372C16.731,27.547,6.508,15.268,5.225,8.879,11.275,8.393,30.372,15.111,42.879,24Z" transform="translate(-2.009 -5.834)"/>
</svg>
