<svg xmlns="http://www.w3.org/2000/svg" width="75.024" height="74.992" viewBox="0 0 75.024 74.992">
  <g id="Group_5356" data-name="Group 5356" transform="translate(-309.783 -6740.8)">
    <rect id="Rectangle_18585" data-name="Rectangle 18585" width="2.457" height="11.401" transform="translate(346.066 6766.896)" stroke="#000" stroke-width="0.4"/>
    <path id="Path_5949" data-name="Path 5949" d="M69.825,61.147H67.367V50.976H22.309V61.147H19.852v-11.4a1.228,1.228,0,0,1,1.228-1.229H68.595a1.229,1.229,0,0,1,1.229,1.229v11.4Z" transform="translate(302.457 6728.549)" stroke="#000" stroke-width="0.4"/>
    <path id="Path_5950" data-name="Path 5950" d="M48.337,21.2a8.1,8.1,0,1,1,8.049-8.1A8.083,8.083,0,0,1,48.337,21.2Zm0-13.736A5.639,5.639,0,1,0,53.928,13.1,5.622,5.622,0,0,0,48.337,7.459Z" transform="translate(298.958 6736)" stroke="#000" stroke-width="0.4"/>
    <path id="Path_5951" data-name="Path 5951" d="M59.451,34.744h-24.5a1.23,1.23,0,0,1-1.222-1.092c-.433-3.846,1.013-11.58,9.587-13.33a1.218,1.218,0,0,1,.905.167,5.552,5.552,0,0,0,5.956,0,1.222,1.222,0,0,1,.905-.167c8.574,1.751,10.021,9.486,9.587,13.33A1.228,1.228,0,0,1,59.451,34.744ZM36.14,32.285H58.266c-.045-2.384-.852-7.912-7.22-9.453a8.01,8.01,0,0,1-7.686,0C36.991,24.373,36.184,29.9,36.14,32.285Z" transform="translate(300.092 6733.381)" stroke="#000" stroke-width="0.4"/>
    <path id="Path_5952" data-name="Path 5952" d="M19.671,78.467a8.1,8.1,0,1,1,8.049-8.1A8.083,8.083,0,0,1,19.671,78.467Zm0-13.736a5.639,5.639,0,1,0,5.591,5.639A5.622,5.622,0,0,0,19.671,64.731Z" transform="translate(303.866 6726.195)" stroke="#000" stroke-width="0.4"/>
    <path id="Path_5953" data-name="Path 5953" d="M30.786,92.016H6.289a1.229,1.229,0,0,1-1.221-1.092c-.433-3.846,1.012-11.581,9.587-13.33a1.225,1.225,0,0,1,.905.167,5.548,5.548,0,0,0,5.956,0,1.224,1.224,0,0,1,.905-.167c8.574,1.751,10.02,9.486,9.587,13.33A1.23,1.23,0,0,1,30.786,92.016ZM7.475,89.557H29.6c-.045-2.384-.852-7.912-7.22-9.454a8,8,0,0,1-7.686,0C8.326,81.645,7.519,87.173,7.475,89.557Z" transform="translate(305 6723.576)" stroke="#000" stroke-width="0.4"/>
    <path id="Path_5954" data-name="Path 5954" d="M77,78.467a8.1,8.1,0,1,1,8.049-8.1A8.083,8.083,0,0,1,77,78.467Zm0-13.736a5.639,5.639,0,1,0,5.592,5.639A5.621,5.621,0,0,0,77,64.731Z" transform="translate(294.05 6726.195)" stroke="#000" stroke-width="0.4"/>
    <path id="Path_5955" data-name="Path 5955" d="M88.117,92.016H63.62A1.23,1.23,0,0,1,62.4,90.924c-.433-3.846,1.013-11.581,9.587-13.33a1.225,1.225,0,0,1,.905.167,5.549,5.549,0,0,0,5.957,0,1.222,1.222,0,0,1,.9-.167c8.575,1.751,10.021,9.486,9.587,13.33A1.229,1.229,0,0,1,88.117,92.016ZM64.806,89.557H86.931c-.044-2.384-.851-7.912-7.22-9.454a8.006,8.006,0,0,1-7.687,0C65.657,81.645,64.849,87.173,64.806,89.557Z" transform="translate(295.185 6723.576)" stroke="#000" stroke-width="0.4"/>
  </g>
</svg>
