<svg xmlns="http://www.w3.org/2000/svg" width="75.272" height="53.114" viewBox="0 0 75.272 53.114">
  <g id="Layer_29" data-name="Layer 29" transform="translate(-2.66 -11.32)">
    <path id="Path_5958" data-name="Path 5958" d="M76.564,20.933H69.194a12.861,12.861,0,0,1-5.723-1.389L51.048,13.216A15.15,15.15,0,0,0,44.18,11.57H35.358a6.919,6.919,0,0,0-5.723,3.022L18.06,16.238,4.209,14.7a1.286,1.286,0,0,0-.913.3,1.183,1.183,0,0,0-.386.875V40.8a1.17,1.17,0,0,0,1.17,1.17H6.421v3.305A4.463,4.463,0,0,0,7.488,48.2,34.261,34.261,0,0,0,22.626,58.422a33.438,33.438,0,0,0,10.559,1.672h.926l3.434,3.421a1.158,1.158,0,0,0,.643.334,27.715,27.715,0,0,0,4.321.334A26.84,26.84,0,0,0,65.889,50.705a1.17,1.17,0,0,0,0-1.055c0-.129-.116-.257-.18-.386l11.227-4.283a1.183,1.183,0,0,0,.746-1.093V22.026A1.17,1.17,0,0,0,76.564,20.933ZM23.346,56.158A32.152,32.152,0,0,1,9.2,46.68a2.173,2.173,0,0,1-.5-1.4V41.973h3.331a9.7,9.7,0,0,1,6.893,2.855L31.782,57.689a31.818,31.818,0,0,1-8.437-1.53Zm37.039-1.968a34.441,34.441,0,0,0-2.829-6.739,33.875,33.875,0,0,0-7.974-9.607,1.2,1.2,0,1,0-1.543,1.839A31.419,31.419,0,0,1,55.459,48.6a30.982,30.982,0,0,1,2.958,7.395,23.625,23.625,0,0,1-3.537,2.572,21.4,21.4,0,0,1-1.942,1A19.973,19.973,0,0,0,51.4,53.779a20.577,20.577,0,0,0-6.482-8.218,1.17,1.17,0,0,0-1.633.231,1.183,1.183,0,0,0,.231,1.646,18.224,18.224,0,0,1,5.813,7.215,17.658,17.658,0,0,1,1.44,5.749,24.436,24.436,0,0,1-5.144,1.2,14.867,14.867,0,0,0-6.906-9.954,1.17,1.17,0,0,0-1.222,1.993,12.552,12.552,0,0,1,5.774,8.128,27.356,27.356,0,0,1-4.283-.231L35.461,58.01h0L20.671,43.22a12,12,0,0,0-8.642-3.588H5.251V17.164l12.732,1.415a1.132,1.132,0,0,0,.3,0l9.633-1.312-1.067,1.646a5.041,5.041,0,0,0,7.279,6.778l3.087-2.354h5.44A72.316,72.316,0,0,1,54.6,35.272a72.586,72.586,0,0,1,9,14.79,25.079,25.079,0,0,1-3.215,4.128ZM75.393,43.117,64.757,47.194a74.926,74.926,0,0,0-8.308-13.349A74.258,74.258,0,0,0,43.769,21.126a1.286,1.286,0,0,0-.72-.244H37.981V18.553a1.17,1.17,0,0,0-2.341,0v2.932l-2.932,2.238A2.7,2.7,0,0,1,28.85,20.1l2.636-4.115a4.617,4.617,0,0,1,3.858-2.1H44.18a12.655,12.655,0,0,1,5.774,1.389L62.365,21.6a15.189,15.189,0,0,0,6.829,1.646h6.2Z" transform="translate(0 0)" stroke="#000" stroke-width="0.5"/>
  </g>
</svg>
