<svg xmlns="http://www.w3.org/2000/svg" width="54.157" height="68.301" viewBox="0 0 54.157 68.301">
  <g id="Group_5357" data-name="Group 5357" transform="translate(14828.25 -6248.734)">
    <path id="Path_5959" data-name="Path 5959" d="M42.107,75.977l2.717,1.913,1,.71,1-.71,2.717-1.913A127.318,127.318,0,0,0,64,64.8c5.92-5.651,8.654-10.948,8.654-16.668V20.693L45.829,10.87,19,20.693V48.136c0,5.721,2.761,11.017,8.654,16.668A127.318,127.318,0,0,0,42.107,75.977ZM22.462,48.136V23.1l23.367-8.559L69.2,23.1V48.136c0,4.708-2.415,9.208-7.607,14.167-3.929,3.756-9.061,7.356-14.029,10.844l-1.731,1.22L44.1,73.147A120.819,120.819,0,0,1,30.069,62.3C24.876,57.344,22.462,52.844,22.462,48.136Z" transform="translate(-14847 6238.13)" stroke="#fff" stroke-width="0.5"/>
    <path id="Path_5960" data-name="Path 5960" d="M62.456,37.675,60.032,35.2,43.2,51.617,35.731,42.9,33.1,45.153l9.875,11.519Z" transform="translate(-14848.897 6234.856)" stroke="#fff" stroke-width="0.5"/>
  </g>
</svg>
