<svg id="Layer_1" data-name="Layer 1" xmlns="http://www.w3.org/2000/svg" viewBox="0 0 85 62"><path d="M64.5,25.86a.78.78,0,0,1-.18-.24s0-.05.16-.17a.63.63,0,0,0,.31-.47.62.62,0,0,0-.24-.49.75.75,0,0,0-.52-.22.78.78,0,0,0-.52.4l0,.06a.36.36,0,0,1-.09-.09c-.56-.6-1-1.07-1.5-1.5a.88.88,0,0,1-.32-.79A18.9,18.9,0,0,0,54.32,6.52l.43-.11a25.16,25.16,0,0,1,9.84-.77C67.32,6.09,69,7.11,69.91,9a.51.51,0,0,0,.76.24l.09,0a.52.52,0,0,0,.35-.27A.63.63,0,0,0,71,8.37a6.4,6.4,0,0,0-2.12-2.43A12.23,12.23,0,0,0,61.7,4.18a31.4,31.4,0,0,0-8.23,1.29.92.92,0,0,1-.84-.13,18.3,18.3,0,0,0-8.45-2.85A18.72,18.72,0,0,0,30.63,6.58l-.05,0a18.94,18.94,0,0,0-7.1,13.88,5.62,5.62,0,0,0,0,.92,2.53,2.53,0,0,1-.11,1.39A4.91,4.91,0,0,1,22.34,24a8.82,8.82,0,0,0-.66.61c-.05.05-.12.13-.1.15a.47.47,0,0,1-.09-.1.46.46,0,0,0-.35-.25.54.54,0,0,0-.44.2l-.06.06a.59.59,0,0,0-.27.45.5.5,0,0,0,.24.4.47.47,0,0,1,.1.09s0,.09-.17.23a36.18,36.18,0,0,0-3.16,3.9,21.3,21.3,0,0,0-3.93,8.47c-.67,3.77,1,6.77,4.48,8a17.68,17.68,0,0,0,8.19.61,40.74,40.74,0,0,0,8-1.84.5.5,0,0,1,.14,0,.22.22,0,0,1,0,.13c.15.83.31,1.66.47,2.48v0H34.3c-.72,0-1.08,0-1.32.25s-.24.63-.22,1.33c0,.27,0,.32,0,.33s0,0-.27,0a.68.68,0,0,0-.59.1.62.62,0,0,0-.19.51.65.65,0,0,0,.19.51.74.74,0,0,0,.62.1c.2,0,.24,0,.24,0s0,.06,0,.33,0,.33,0,.34-.05,0-.29,0a.67.67,0,0,0-.57.1.64.64,0,0,0-.19.52.67.67,0,0,0,.2.51.74.74,0,0,0,.62.09.43.43,0,0,1,.23,0s0,.09,0,.36,0,.27,0,.27a.48.48,0,0,1-.25,0h-.26a.53.53,0,0,0-.39.11.67.67,0,0,0-.15.54.49.49,0,0,0,.51.58l.29,0c.08,0,.22,0,.26,0a1.14,1.14,0,0,1,0,.43,2.62,2.62,0,0,0,0,.28v.1a1.61,1.61,0,0,1,0,.22.84.84,0,0,0,.13.69.9.9,0,0,0,.7.21c.81,0,1.63,0,2.43,0h.81a.17.17,0,0,1,0,.05,4.53,4.53,0,0,0,3.29,3.93,7.37,7.37,0,0,0,2.25.32c.53,0,1,0,1.52-.08a4.82,4.82,0,0,0,4.29-4.21h.58l2,0c.73,0,1.09,0,1.33-.25s.23-.65.22-1.31c0-.28,0-.34.05-.35s0,0,.26,0a.69.69,0,0,0,.59-.1.61.61,0,0,0,.18-.49c0-.61-.43-.62-.71-.63l-.23,0s-.12,0-.12,0a2.09,2.09,0,0,1,0-.7.76.76,0,0,1,.14,0,1,1,0,0,0,.25,0h.06c.21,0,.64,0,.65-.62a.63.63,0,0,0-.19-.51.69.69,0,0,0-.56-.11c-.21,0-.26,0-.26,0s-.07-.08-.09-.36,0-.29,0-.29a.92.92,0,0,1,.4,0,.64.64,0,0,0,.52-.14.58.58,0,0,0,.13-.46v-.09a.59.59,0,0,0-.17-.46.48.48,0,0,0-.42-.08c-.3.06-.4,0-.43,0s-.06-.46-.05-.62,0-.22,0-.33a1.13,1.13,0,0,1,0-.26.61.61,0,0,0-.13-.52.68.68,0,0,0-.56-.17h-.56c-.24,0-.47,0-.71,0h-.09a.68.68,0,0,1,0-.12l.12-.56c.1-.51.21-1,.28-1.57,0-.28.09-.32.1-.32s.08,0,.37.06a36.09,36.09,0,0,0,9.69,1.94,14.32,14.32,0,0,0,7-1.09,6.39,6.39,0,0,0,3.87-5.81,12.63,12.63,0,0,0-1.4-6A33.51,33.51,0,0,0,64.5,25.86Zm-22,29.33H40.33c-2,0-4.06,0-6.09,0a.71.71,0,0,1-.25,0,.9.9,0,0,1,0-.26v-.09c0-.23,0-.27,0-.28s0,0,.25,0h0c5.34,0,10.76,0,16.59,0h0a.52.52,0,0,1,.23,0,.81.81,0,0,1,0,.25,1.34,1.34,0,0,0,0,.2.92.92,0,0,1,0,.19.43.43,0,0,1-.22,0c-1.31,0-2.63,0-3.94,0H42.47Zm8.6-1.91a.44.44,0,0,1-.17,0H40.35c-2.08,0-4.16,0-6.25,0H34a.65.65,0,0,1,0-.14A1.28,1.28,0,0,0,34,53a.71.71,0,0,0,0-.14c0-.06,0-.14,0-.15a.32.32,0,0,1,.15,0h0c5.73,0,11.37,0,16.78,0h.16a.48.48,0,0,1,0,.17v.22A1,1,0,0,1,51.07,53.28Zm-8.53-1.86h-2.2q-3.08,0-6.17,0a.51.51,0,0,1-.19,0,.47.47,0,0,1,0-.17A1.77,1.77,0,0,0,34,51a1.38,1.38,0,0,1,0-.24s0,0,.22,0c6.11,0,11.54,0,16.61,0h0c.19,0,.23,0,.23,0a.7.7,0,0,1,0,.24v.13c0,.21,0,.25,0,.25s0,0-.27,0c-2.05,0-4.11,0-6.16,0Zm8.52-1.92a1.29,1.29,0,0,1-.32,0q-8.24,0-16.48,0l-.29,0a.36.36,0,0,1,0-.18,1.93,1.93,0,0,0,0-.24.62.62,0,0,1,0-.21s0,0,.22,0h0c2,0,4.08,0,6.07,0h4.44c2,0,4,0,6,0,.33,0,.33,0,.35.38v.07A.41.41,0,0,1,51.06,49.5Zm15-4.17a17.82,17.82,0,0,1-7.39.3,38.16,38.16,0,0,1-6.85-1.58c-.66-.21-.67-.22-.6-.81l.05-.12a2.87,2.87,0,0,0,.18-.4,23.74,23.74,0,0,1,4-7.12L56,35a23.1,23.1,0,0,0,3.72-5.34.67.67,0,0,0,.88-.28.4.4,0,0,1,.1-.12.48.48,0,0,0,.16-.46.66.66,0,0,0-.42-.45.87.87,0,0,1-.13-.06.51.51,0,0,1,.07-.18l.06-.16a6.4,6.4,0,0,0,.2-.62l.07-.22h0a15.25,15.25,0,0,0,.64-2.76c.47.42.87.86,1.27,1.29a2.08,2.08,0,0,0-.55.56c-.06.09-.2.29-.05.47l.08.11c.11.15.28.39.53.39l.16,0a1.34,1.34,0,0,0,.66-.6A33.31,33.31,0,0,1,69,34.35a14.26,14.26,0,0,1,1.4,4.23,5.64,5.64,0,0,1-4.29,6.75ZM21.67,26.47s0,.06,0,.09a1.44,1.44,0,0,0,.74.76.28.28,0,0,0,.15,0,.48.48,0,0,0,.29-.1.72.72,0,0,0,.35-.6,1,1,0,0,0-.44-.68l-.18-.15a.26.26,0,0,0-.25-.06c.42-.45.86-.9,1.34-1.37a22.42,22.42,0,0,0,.79,3.29l-.12-.13c-.56-.59-.7-.5-.81-.43s-.62.38-.54.74a1.33,1.33,0,0,0,.72.77.23.23,0,0,0,.14,0l.11,0a1.6,1.6,0,0,0,.58-.54.45.45,0,0,0,0-.11c.05.16.11.33.17.48l-.07.08-.08.07a.61.61,0,0,0-.26.4.39.39,0,0,0,.13.32l.1.13a.73.73,0,0,0,.83.4.76.76,0,0,0,0,.11l.22.4A13,13,0,0,0,27,32.49h0a9.54,9.54,0,0,0,1.28,1.63A24.48,24.48,0,0,1,33,41.23l.23.65c.22.61.43,1.22.66,1.82a.85.85,0,0,0,.05.13l-.07,0a35.15,35.15,0,0,1-11.56,2,12.12,12.12,0,0,1-3.75-.66,5.59,5.59,0,0,1-3.89-6.75,20.27,20.27,0,0,1,3.69-7.94A39.21,39.21,0,0,1,21.67,26.47ZM34.11,40.78h0l-.21-.49a11,11,0,0,0-.5-1.12,24.5,24.5,0,0,0-4-5.63l-.07-.08a.74.74,0,0,0,.21.07h.06a.54.54,0,0,0,.46-.37.62.62,0,0,1,.12-.17.23.23,0,0,0,.13-.21.24.24,0,0,0-.1-.22L30,32.37a1.46,1.46,0,0,0-.6-.38.55.55,0,0,0-.57.23.66.66,0,0,0-.15.53,3.34,3.34,0,0,1-.36-.48.92.92,0,0,0,.34-.34.56.56,0,0,0-.22-.77l-.1-.08a.61.61,0,0,0-.45-.27.52.52,0,0,0-.42.2h0c-.16-.2-.22-.27-.16-.44a.5.5,0,0,0-.14-.46,9.15,9.15,0,0,1-2-4.53,17.81,17.81,0,1,1,34.4,1l-.06.26V27a23.15,23.15,0,0,1-1.79,3.76l0,.08a.58.58,0,0,0-.41-.17.63.63,0,0,0-.41.3l-.07.09a.55.55,0,0,0-.31.43.58.58,0,0,0,.24.48c.14.1.15.11-.07.4l0,.06a.24.24,0,0,0-.09-.13.92.92,0,0,1-.14-.14.51.51,0,0,0-.61-.25l-.06,0c-.26.11-.68.29-.72.72a.8.8,0,0,0,.31.56.59.59,0,0,0,.36.17h.06l.14-.05a25.4,25.4,0,0,0-4.54,6.58l-.11.25a15,15,0,0,0-1.07,2.78.72.72,0,0,0-.16.4,1,1,0,0,0,0,.11l-.16,0c-.75-.3-1.52-.58-2.28-.87l-.86-.32L43.9,40.9c2-1,4-2.15,5.88-3.34.31-.19.61-.41.63-.74a.85.85,0,0,0-.37-.68.27.27,0,0,0-.32,0c-2.56,1.62-4.88,3-7.1,4.07-.09,0-.09,0-.18,0l-.88-.44-1.2-.63-.56-.31a46.78,46.78,0,0,1-4-2.41.57.57,0,0,0-.44-.13.6.6,0,0,0-.37.29l-.07.09a.52.52,0,0,0-.19.42c0,.21.2.3.35.38l1.06.66c1.1.67,2.23,1.37,3.41,2l.49.24a8.46,8.46,0,0,1,1.09.62L41,41a1.79,1.79,0,0,0-.47.25l-1.07.45c-1.33.57-2.71,1.16-4.09,1.66a1.12,1.12,0,0,1-.21.06s0,0-.09-.21A12,12,0,0,0,34.11,40.78Zm1.49,3.75.09,0c1.67-.59,3.42-1.3,5.34-2.18a3.07,3.07,0,0,0,.31-.17l.1-.06.11,0a1.15,1.15,0,0,0,.39-.16c.33-.27.63-.27,1.16,0l.38.2a7.42,7.42,0,0,0,1.44.61,35.42,35.42,0,0,0,4.39,1.8c.28.1.29.11.21.41a21.75,21.75,0,0,0-.48,2.5c0,.21,0,.22-.26.21H36a.66.66,0,0,1,0-.11,18.41,18.41,0,0,0-.54-2.81.42.42,0,0,1,0-.1A.49.49,0,0,1,35.6,44.53Z"/><path d="M53.71,4A1.42,1.42,0,0,0,55.05,2.6a1.34,1.34,0,0,0-2.67-.05,1.43,1.43,0,0,0,.4,1A1.31,1.31,0,0,0,53.71,4Z"/><path d="M59.69,52h1.94a.82.82,0,0,0,.58-.18.64.64,0,0,0,.16-.45c0-.3-.19-.62-.72-.62H57.81a.73.73,0,0,0-.55.19.57.57,0,0,0-.16.45c0,.14.07.6.71.6h1.88Z"/><path d="M63.34,52.23H61.42a.65.65,0,0,0-.48.18.55.55,0,0,0-.16.44.57.57,0,0,0,.6.59h2a.58.58,0,0,0,.61-.58.61.61,0,0,0-.16-.45A.65.65,0,0,0,63.34,52.23Z"/><path d="M65.49,50.74c-.62,0-1.24,0-1.85,0a.64.64,0,0,0-.48.19.57.57,0,0,0-.16.44.6.6,0,0,0,.65.61h1.81a.61.61,0,0,0,.65-.58.58.58,0,0,0-.15-.46A.6.6,0,0,0,65.49,50.74Z"/><path d="M17.43,8.72a.55.55,0,0,0,.1.48,3.29,3.29,0,0,0,.8.82h0a.62.62,0,0,0,.36.12.71.71,0,0,0,.2,0,.67.67,0,0,0,.38-.5c0-.12,0-.3-.29-.65-.06-.07-.6-.68-1-.68l-.1,0A.74.74,0,0,0,17.43,8.72Z"/><path d="M64.93,12.15a.55.55,0,0,0,.5-.48c.06-.34-.32-.76-.49-.93s-.54-.47-.8-.42a.61.61,0,0,0-.54.62c0,.18.13.41.41.69a1.61,1.61,0,0,0,.91.52Z"/><path d="M19.4,9.77a.62.62,0,0,0,.53.34H20c.1,0,.29,0,.62-.33.1-.09.6-.56.6-.93,0,0,0,0,0-.07a.69.69,0,0,0-.4-.5.61.61,0,0,0-.56.11,3.05,3.05,0,0,0-.74.74A.67.67,0,0,0,19.4,9.77Z"/><path d="M20.52,54a.59.59,0,0,0-.51.65c0,.33.81,1.18,1.19,1.18h0a.6.6,0,0,0,.65-.6c0-.07,0-.27-.39-.69C21.29,54.33,20.86,53.9,20.52,54Z"/><path d="M18,12.05c.29,0,.7-.38.86-.55.4-.41.39-.6.39-.67a.69.69,0,0,0-.3-.55.53.53,0,0,0-.49,0,1.88,1.88,0,0,0-1,1.06.5.5,0,0,0,0,.46.66.66,0,0,0,.52.28Z"/><path d="M21.19,11.47c0-.19-.14-.45-.46-.78a1.43,1.43,0,0,0-.76-.48.63.63,0,0,0-.51.24.53.53,0,0,0-.06.49,1.81,1.81,0,0,0,1,1.06.53.53,0,0,0,.23.06.49.49,0,0,0,.23-.06A.67.67,0,0,0,21.19,11.47Z"/><path d="M19.28,53.87h0a.61.61,0,0,0,.64-.6c0-.07,0-.26-.36-.65-.09-.1-.56-.58-1-.58h0a.57.57,0,0,0-.53.55c0,.07,0,.27.39.73C18.66,53.52,19,53.87,19.28,53.87Z"/><path d="M65.64,13.18a3,3,0,0,0,.77.79.67.67,0,0,0,.39.13.56.56,0,0,0,.56-.53v0c0-.42-.61-1-.63-1-.33-.29-.5-.3-.61-.29a.68.68,0,0,0-.56.36A.57.57,0,0,0,65.64,13.18Z"/><path d="M64.14,14.07h0a1.21,1.21,0,0,0,.66-.36,1.63,1.63,0,0,0,.58-1c0-.27-.28-.46-.66-.45a2.07,2.07,0,0,0-1.17,1.22A.57.57,0,0,0,64.14,14.07Z"/><path d="M66,12.14h.08c.32,0,.7-.36.86-.51a1.16,1.16,0,0,0,.41-.73.64.64,0,0,0-.3-.54.6.6,0,0,0-.58,0,2.29,2.29,0,0,0-.86.86.55.55,0,0,0-.07.51A.64.64,0,0,0,66,12.14Z"/><path d="M19.61,54a.57.57,0,0,0-.55,0,2,2,0,0,0-.91.9.54.54,0,0,0,0,.55.66.66,0,0,0,.56.32h0c.1,0,.25,0,.53-.29,0,0,.65-.57.67-1A.64.64,0,0,0,19.61,54Z"/><path d="M21,52.09a1.93,1.93,0,0,0-.92.91.58.58,0,0,0,0,.54.72.72,0,0,0,.56.33h0a.81.81,0,0,0,.46-.23s.71-.61.73-1a.57.57,0,0,0-.85-.53Z"/><path d="M18.5,23a.53.53,0,0,0,.3.14.23.23,0,0,0,.14,0h0l.1-.05c.19-.1.56-.29.46-.65a1.52,1.52,0,0,0-.37-.61,1.39,1.39,0,0,1-.15-.19.28.28,0,0,0-.35-.07l-.1.06a1.09,1.09,0,0,0-.54.5C17.86,22.43,18.48,23,18.5,23Z"/><path d="M19.65,24.43a.53.53,0,0,0,.34.17.35.35,0,0,0,.14,0,1.29,1.29,0,0,0,.58-.55.24.24,0,0,0,0-.3l-.14-.19a1.07,1.07,0,0,0-.6-.5c-.31-.08-.64.22-.77.55S19.55,24.34,19.65,24.43Z"/><path d="M67.37,21.44l.12,0c.14,0,.3-.12.58-.51.13-.19.32-.46.13-.65a2.6,2.6,0,0,0-.39-.33l-.17-.13a.25.25,0,0,0-.2-.06.32.32,0,0,0-.18.12c-.05.08-.11.15-.16.22a1.57,1.57,0,0,0-.35.63c-.09.37.32.55.56.66Z"/><path d="M59.73,52.22h0c-.23,0-.77,0-.79.58a.59.59,0,0,0,.15.46.86.86,0,0,0,.67.2h0c.23,0,.75,0,.77-.59a.6.6,0,0,0-.15-.46A1,1,0,0,0,59.73,52.22Z"/><path d="M70.39,9.75a.53.53,0,0,0,0,.5h0a.53.53,0,0,1,0,.14.64.64,0,0,0,.19.53.5.5,0,0,0,.35.12l.17,0h.07a.53.53,0,0,0,.43-.19.56.56,0,0,0,.06-.47.24.24,0,0,0-.06-.11s0-.05,0-.07a.62.62,0,0,0-.11-.49A.58.58,0,0,0,71,9.54.69.69,0,0,0,70.39,9.75Z"/><path d="M71.66,12.3a.72.72,0,0,1,0-.13v-.08a.69.69,0,0,0-.12-.53.59.59,0,0,0-.46-.17.6.6,0,0,0-.67.63.53.53,0,0,1,0,.13.69.69,0,0,0,.09.51.75.75,0,0,0,.53.23h.08a.57.57,0,0,0,.4-.13A.55.55,0,0,0,71.66,12.3Z"/><path d="M16.77,6.82a.3.3,0,0,0,.15,0,.28.28,0,0,0,.17-.07.62.62,0,0,1,.23-.12.79.79,0,0,0,.53-.5.82.82,0,0,0-.18-.64.46.46,0,0,0-.4-.19,1,1,0,0,0-1,.66C16.21,6.33,16.5,6.65,16.77,6.82Z"/><path d="M13.38,12.48a.59.59,0,0,0,.13.49.49.49,0,0,0,.39.14H14l0-.26h0l.06.26a.57.57,0,0,0,.58-.82,0,0,0,0,0,0,0s0,0,0,0a.59.59,0,0,0-.11-.47.62.62,0,0,0-.49-.16.69.69,0,0,0-.54.23.62.62,0,0,0-.06.53A.49.49,0,0,1,13.38,12.48Z"/><path d="M68.56,19.85a.82.82,0,0,0,.54-.53,1.08,1.08,0,0,1,.12-.22.25.25,0,0,0,0-.27.83.83,0,0,0-.82-.52,1,1,0,0,0-.68.9.51.51,0,0,0,.17.44.79.79,0,0,0,.51.21Z"/><path d="M14.83,14.81a.57.57,0,0,0,.2-.44.25.25,0,0,0,0-.18s0-.09,0-.14a.56.56,0,0,0-.57-.61.74.74,0,0,0-.62.19.46.46,0,0,0-.08.43.81.81,0,0,1,0,.16c0,.22.05.68.57.74h.12A.66.66,0,0,0,14.83,14.81Z"/><path d="M69.58,18.24a1.33,1.33,0,0,0,.54-.89h0a.45.45,0,0,0-.1-.42.82.82,0,0,0-.62-.23c-.54,0-.65.55-.7.83l0,.07c-.07.35.26.48.4.54a.65.65,0,0,1,.17.09.31.31,0,0,0,.18.07A.3.3,0,0,0,69.58,18.24Zm.29-.95Z"/><path d="M14.85,16.73H15a.81.81,0,0,0,.71-.46.3.3,0,0,0,0-.29.51.51,0,0,1-.09-.21.71.71,0,0,0-.5-.58.79.79,0,0,0-.65.16.46.46,0,0,0-.15.43l.26,0-.26.1C14.29,16.12,14.35,16.62,14.85,16.73Z"/><path d="M13.45,11a.62.62,0,0,0,.52.25L14,11h0l0,.26h.11a.52.52,0,0,0,.36-.12.62.62,0,0,0,.16-.48.41.41,0,0,1,0-.12.6.6,0,0,0-.05-.53A.73.73,0,0,0,14,9.75a.51.51,0,0,0-.47.16.55.55,0,0,0-.06.49A.7.7,0,0,0,13.45,11Z"/><path d="M20.44,5.63h.08a.38.38,0,0,0,.17-.08h0a.58.58,0,0,0,.47-.12A.56.56,0,0,0,21.36,5a.64.64,0,0,0-.18-.56.48.48,0,0,0-.45-.05.35.35,0,0,1-.14,0,.71.71,0,0,0-.55.12.65.65,0,0,0-.16.51.62.62,0,0,0,.14.51A.57.57,0,0,0,20.44,5.63Z"/><path d="M26.05,5.62h.12a.66.66,0,0,0,.23,0,.55.55,0,0,0,.29-.08.69.69,0,0,0,.25-.54.62.62,0,0,0-.12-.48.59.59,0,0,0-.48-.17h-.12a.68.68,0,0,0-.55.08.65.65,0,0,0-.23.48.6.6,0,0,0,.12.49A.59.59,0,0,0,26.05,5.62Z"/><path d="M66.33,22.94c.51,0,.7-.5.83-.81s-.19-.5-.4-.63a1.37,1.37,0,0,1-.2-.13.27.27,0,0,0-.19-.05.29.29,0,0,0-.18.1l-.15.19a1.62,1.62,0,0,0-.38.58h0a.52.52,0,0,0,.09.45.83.83,0,0,0,.57.3Z"/><path d="M15.65,18.43h.11a.85.85,0,0,0,.71-.52.27.27,0,0,0,0-.27,1.16,1.16,0,0,1-.1-.22.74.74,0,0,0-.51-.55.84.84,0,0,0-.66.2.45.45,0,0,0-.15.4C15,17.7,15.12,18.3,15.65,18.43Z"/><path d="M71.39,14c0-.06,0-.11,0-.16a.46.46,0,0,0-.06-.37.51.51,0,0,0-.4-.18h-.09a.26.26,0,0,0-.29-.06.82.82,0,0,0-.48.81c0,.05,0,.1,0,.14a.5.5,0,0,0,.12.43.7.7,0,0,0,.49.17h.15C71.36,14.67,71.38,14.21,71.39,14Z"/><path d="M15.48,8l.11,0a1,1,0,0,0,.76-.84c0-.33-.31-.63-.64-.72a.26.26,0,0,0-.25.06l-.14.12a1.16,1.16,0,0,0-.5.69.64.64,0,0,0,.25.53A.68.68,0,0,0,15.48,8Z"/><path d="M14.22,9.4l.1,0a.26.26,0,0,0,.21.1l.11,0a1.17,1.17,0,0,0,.6-.9.51.51,0,0,0-.13-.45.8.8,0,0,0-.61-.24c-.47.07-.58.5-.64.77l0,.11a.49.49,0,0,0,0,.36A.54.54,0,0,0,14.22,9.4Z"/><path d="M22.28,5.45a.86.86,0,0,0,.24,0h.08a.58.58,0,0,0,.47-.13.63.63,0,0,0,.15-.5A.72.72,0,0,0,23,4.27a.69.69,0,0,0-.55-.08h-.11a.64.64,0,0,0-.49.14.6.6,0,0,0-.14.48.67.67,0,0,0,.23.53A.55.55,0,0,0,22.28,5.45Z"/><path d="M17.58,21.61l.14,0a.8.8,0,0,0,.51-.23.5.5,0,0,0,.18-.49,1.52,1.52,0,0,0-.65-.87.28.28,0,0,0-.2,0,.3.3,0,0,0-.17.12.36.36,0,0,1-.13.08.53.53,0,0,0-.35.51h0A1.09,1.09,0,0,0,17.58,21.61Z"/><path d="M24.21,5.46h.13l.23,0a.57.57,0,0,0,.29-.08.73.73,0,0,0,.24-.57A.55.55,0,0,0,25,4.38a.6.6,0,0,0-.48-.15h-.12a.64.64,0,0,0-.55.07.62.62,0,0,0-.22.51.63.63,0,0,0,.13.49A.65.65,0,0,0,24.21,5.46Z"/><path d="M18.53,6.05h.13l.15,0c.21,0,.71-.06.73-.62s-.28-.73-.54-.75a.22.22,0,0,0-.19.06.64.64,0,0,1-.19,0c-.17,0-.55.1-.59.54a.82.82,0,0,0,.19.64A.51.51,0,0,0,18.53,6.05Z"/><path d="M28,5.92h.13a.54.54,0,0,0,.26.07.36.36,0,0,0,.2-.06.58.58,0,0,0,.22-.5.19.19,0,0,1,0-.08.55.55,0,0,0-.1-.48.55.55,0,0,0-.48-.14h0l0,0a.66.66,0,0,0-.6,0,.55.55,0,0,0-.22.5v.08a.6.6,0,0,0,.12.51A.64.64,0,0,0,28,5.92Z"/><path d="M29.84,6.31H30l.17,0a.48.48,0,0,0,.27-.09.74.74,0,0,0,.19-.65A.54.54,0,0,0,30,5.07c-.05,0-.11,0-.1,0A.34.34,0,0,0,29.73,5a.6.6,0,0,0-.46.16.69.69,0,0,0-.14.58C29.14,6.31,29.65,6.31,29.84,6.31Z"/><path d="M16.64,20.05h.05a.83.83,0,0,0,.57-.25.48.48,0,0,0,.11-.44,1.41,1.41,0,0,0-.59-.87.27.27,0,0,0-.33,0,1,1,0,0,1-.15.09c-.14.07-.47.22-.39.59C16,19.39,16.1,20,16.64,20.05Z"/><path d="M65.14,24.4h.06a1,1,0,0,0,.79-.81c.09-.33-.21-.52-.4-.64l-.17-.11a.27.27,0,0,0-.37,0c0,.07-.11.13-.16.19a1.61,1.61,0,0,0-.41.59.51.51,0,0,0,.12.46A.77.77,0,0,0,65.14,24.4Z"/><path d="M70.2,16.52a.6.6,0,0,0,.55-.56.91.91,0,0,1,.06-.16.29.29,0,0,0,.07-.18.61.61,0,0,0-.17-.45.75.75,0,0,0-.56-.17c-.53,0-.61.5-.65.74a.5.5,0,0,1,0,.12.5.5,0,0,0,.1.43.82.82,0,0,0,.58.23Z"/><path d="M51.61,35.16a.23.23,0,0,0-.19-.1.24.24,0,0,0-.2.08.77.77,0,0,1-.27.16.7.7,0,0,0-.53.58.93.93,0,0,0,.33.69.53.53,0,0,0,.29.1.58.58,0,0,0,.18,0l.07,0c.26-.11.75-.29.75-.81h0a.75.75,0,0,0-.3-.51Z"/><path d="M34.21,35.39A.56.56,0,0,1,34,35.3a.28.28,0,0,0-.28-.06c-.31.12-.63.52-.56.81.11.46.63.65.84.71l.14,0a.44.44,0,0,0,.27-.09.85.85,0,0,0,.29-.66A.63.63,0,0,0,34.21,35.39Z"/><path d="M32.34,34.19h0c-.33-.07-.47.22-.54.36a1.46,1.46,0,0,1-.09.15.27.27,0,0,0-.12.2.31.31,0,0,0,.09.22l.66.55a.28.28,0,0,0,.17.07h.07a.82.82,0,0,0,.63-.82A1.05,1.05,0,0,0,32.34,34.19Z"/><path d="M53.42,34.43a.51.51,0,0,0-.55-.37h0a1.43,1.43,0,0,0-.62.36c-.07,0-.13.11-.2.15a.27.27,0,0,0-.11.18A.29.29,0,0,0,52,35a1,1,0,0,1,.1.18c.08.17.21.44.49.44h.05a1.64,1.64,0,0,0,.93-.59.26.26,0,0,0,.07-.21.32.32,0,0,0-.12-.2A.68.68,0,0,1,53.42,34.43Z"/><path d="M54.71,33a.35.35,0,0,0-.39-.06h0l-.14.07c-.25.11-.62.27-.66.69,0,.18,0,.45.51.72a.22.22,0,0,0,.24,0c.26-.12.69-.32.77-.76A.79.79,0,0,0,54.71,33Z"/><path d="M31.72,33.79a1.24,1.24,0,0,0-.47-.45,1.23,1.23,0,0,1-.23-.18.29.29,0,0,0-.18-.11.27.27,0,0,0-.21.07l-.11.09c-.17.13-.47.35-.36.7a1,1,0,0,0,.89.69h0c.22,0,.37-.19.5-.36a.76.76,0,0,1,.11-.14A.27.27,0,0,0,31.72,33.79Z"/><path d="M17.14,39a1.54,1.54,0,0,0,1.56,1.59h0A1.43,1.43,0,0,0,20.19,39a1.38,1.38,0,0,0-1.49-1.48h0A1.55,1.55,0,0,0,17.14,39Z"/><path d="M62.28,37a1.66,1.66,0,0,0-1.26.36,2.24,2.24,0,0,0-.8,1.55,1.78,1.78,0,0,0,.49,1.34,2.19,2.19,0,0,0,1.53.76h0a2.08,2.08,0,0,0,1.42-.58,2,2,0,0,0,.63-1.4,2.13,2.13,0,0,0-.63-1.51A1.86,1.86,0,0,0,62.28,37Zm.81,1.91a.81.81,0,0,1-.25.6.76.76,0,0,1-.55.25h0a.89.89,0,0,1-.84-.78.61.61,0,0,1,.21-.44,1,1,0,0,1,.7-.3h0A.81.81,0,0,1,63.09,38.92Z"/><path d="M61.21,28.47h.07a.71.71,0,0,0,.47-.23l.08-.06a.76.76,0,0,0,.32-.52.83.83,0,0,0-.34-.59,2.23,2.23,0,0,1-.21-.22.28.28,0,0,0-.31-.08.26.26,0,0,0-.15.28c0,.07,0,.1-.15.21a.6.6,0,0,0-.19.89A.61.61,0,0,0,61.21,28.47Z"/><path d="M35.07,30.15a.67.67,0,0,0,1,.06,4.2,4.2,0,0,1,.49-.33,7.11,7.11,0,0,0,.65-.47c.53-.46.87-.49,1.35-.14a3.61,3.61,0,0,0,1.13.47l.28.09c.22.07.26.11.29.29,0,.36.11.7.18,1.05s.1.53.14.79a.79.79,0,0,0,.81.8h.1a18,18,0,0,1,2.08,0,.69.69,0,0,0,.83-.73c0-.18.06-.35.09-.53a3,3,0,0,0,.1-.59c.07-.83.35-1.18,1-1.28a3.42,3.42,0,0,0,1.24-.55c.2-.12.3-.11.51.05s.55.39.84.58.5.34.74.52a.68.68,0,0,0,1-.09c.48-.51,1-1,1.6-1.61a.63.63,0,0,0,.09-.95c-.14-.19-.28-.39-.41-.59s-.36-.54-.56-.79-.33-.62-.09-1a4.58,4.58,0,0,0,.64-1.58.35.35,0,0,1,.35-.31l.86-.16c.34-.07.68-.14,1-.18a.68.68,0,0,0,.7-.79c0-.78,0-1.51,0-2.21a.7.7,0,0,0-.69-.8c-.28,0-.55-.1-.82-.15s-.72-.14-1.08-.19-.28-.08-.34-.31a6.14,6.14,0,0,0-.77-1.84c-.1-.17-.09-.24.06-.45s.37-.53.55-.79l.58-.84a.64.64,0,0,0-.08-1c-.66-.62-1.18-1.14-1.65-1.65A.63.63,0,0,0,49,12l-.77.54c-.29.19-.57.39-.85.6s-.27.15-.45,0a5.83,5.83,0,0,0-1.84-.78c-.22,0-.27-.11-.31-.34s-.11-.59-.16-.89-.15-.74-.2-1.11a.59.59,0,0,0-.66-.58h0c-.91,0-1.65,0-2.33,0a.64.64,0,0,0-.74.61c0,.22-.08.44-.12.66s-.13.67-.17,1c-.06.51-.2.67-.6.74a4.62,4.62,0,0,0-1.63.69c-.16.1-.23.1-.4,0l-1-.68L36,11.92a.59.59,0,0,0-.85.07c-.56.59-1.15,1.17-1.73,1.74a.57.57,0,0,0-.07.84c.31.43.6.86.9,1.29l.29.44.14.21,0,0a7.87,7.87,0,0,0-.91,2.26l-.19,0-.9.16-1.11.2a.71.71,0,0,0-.68.82c0,.64,0,1.34,0,2.2a.66.66,0,0,0,.65.77c.41.06.82.14,1.23.22l.77.14c.19,0,.23.07.27.23a6.35,6.35,0,0,0,.82,2c.08.13.08.17,0,.34s-.38.53-.56.8l-.64.93a.59.59,0,0,0,.08.89C34.06,29.1,34.6,29.64,35.07,30.15ZM33.26,20.2c.86-.12,1.72-.34,1.85-1.61a3.19,3.19,0,0,1,.7-1.49.94.94,0,0,0-.05-1.26c-.31-.41-.6-.85-.88-1.27l-.13-.2-.08-.1.86-.86.14-.15.26.17c.17.11.32.24.48.36a4.14,4.14,0,0,0,1.23.76,1.39,1.39,0,0,0,1.28-.37,2.16,2.16,0,0,1,.61-.33,1.33,1.33,0,0,0,.28-.1l.24-.08c1-.05,1.51-.64,1.53-1.75v-.08c.22-1.27.22-1.27,1.54-1.13h.09a.61.61,0,0,1,0,.14c0,.29.1.56.16.84s.13.7.18,1.05a.77.77,0,0,0,.68.72,6.65,6.65,0,0,1,2.38,1,.77.77,0,0,0,1,0l.67-.46.91-.64c.07-.07.11-.07.11-.07s0,0,.16.14c.91.86.91.86.15,1.86a1.68,1.68,0,0,0-.14,2.34,3.21,3.21,0,0,1,.58,1.54,1,1,0,0,0,1,.9c.31,0,.61.1.92.16l.73.13c.18,0,.21,0,.21.3,0,1.19,0,1.19-1.13,1.36-.82.12-1.72.36-1.88,1.66a3.32,3.32,0,0,1-.7,1.5.84.84,0,0,0,0,1.15l.11.15a7.85,7.85,0,0,1,.9,1.34c.11.23.06.29-.27.52a1.52,1.52,0,0,0-.47.44c-.09.16-.13.18-.14.18a.23.23,0,0,1-.13-.07c-.29-.22-.6-.43-.91-.63l-.72-.51a.72.72,0,0,0-.93,0,6.87,6.87,0,0,1-2.38,1,.76.76,0,0,0-.69.72c-.05.31-.11.62-.17.94s-.13.63-.17.94c0,.15,0,.15-.25.16-1.24,0-1.24,0-1.41-1.17-.1-.79-.32-1.65-1.58-1.8a4.06,4.06,0,0,1-1.66-.79.87.87,0,0,0-.47-.17.79.79,0,0,0-.47.18c-.28.21-.58.41-.87.61s-.51.34-.75.52c-.09.07-.12.07-.12.07s0,0-.14-.11C34.6,28,34.6,28,35.36,27a1.78,1.78,0,0,0,.14-2.45,4,4,0,0,1-.6-1.63.8.8,0,0,0-.75-.72c-.35,0-.69-.11-1-.18l-.84-.16a.32.32,0,0,1-.15,0,.18.18,0,0,1,0-.09.76.76,0,0,0,0-.17C32.11,20.35,32.11,20.35,33.26,20.2Z"/><path d="M42.5,24h0a2.91,2.91,0,0,0,2.06-.85,2.94,2.94,0,0,0,.86-2.08,2.86,2.86,0,0,0-2.87-2.9h0a2.85,2.85,0,0,0-2.94,2.87,2.92,2.92,0,0,0,2.9,3ZM40.86,21.1a1.63,1.63,0,0,1,1.64-1.64h0a1.63,1.63,0,0,1,1.17,2.81,1.71,1.71,0,0,1-1.16.51h0A1.7,1.7,0,0,1,40.86,21.1Z"/><path d="M42.48,35.13A13.93,13.93,0,1,0,28.55,21.2,13.95,13.95,0,0,0,42.48,35.13ZM29.75,21.2A12.73,12.73,0,1,1,42.48,33.93,12.74,12.74,0,0,1,29.75,21.2Z"/></svg>