<svg id="Layer_1" data-name="Layer 1" xmlns="http://www.w3.org/2000/svg" viewBox="0 0 85 62"><path d="M71.65,39.53c-2,1.51-4.08,3-6.1,4.52-1,.75-1.42.73-2.1-.26-2.44-3.57-4.85-7.16-7.33-10.7-.57-.81-.31-1.26.31-1.74a6.9,6.9,0,0,1,.67-.43L61,28.47c.38-.23.59-.51.18-.85-.23-.19-.17-.92-.69-.53-1.95,1.42-4.35,2.23-5.9,4.2a.66.66,0,0,1-.61.24h-2.3a6.66,6.66,0,0,1,.48-.78A34.18,34.18,0,0,0,57.9,20.9,53.62,53.62,0,0,0,61,9.2c.11-.7,0-1.26-.88-1.31a25.68,25.68,0,0,1-4.51-.8C50.88,6,46.41,4.34,42.89.82a.5.5,0,0,0-.84,0,10.74,10.74,0,0,1-1.37,1.33A33.12,33.12,0,0,1,25.07,7.88C24.1,8,23.84,8.26,24,9.2s.37,2,.59,3a46.33,46.33,0,0,0,5.95,15.07,48.92,48.92,0,0,0,3.06,4.21c-1.54-.05-3,.56-4-1.07A1.71,1.71,0,0,0,29.1,30c-1.43-.91-2.89-1.77-4.28-2.74-.6-.42-.72-.11-1,.3s-.19.71.28,1c1.48.9,2.93,1.84,4.38,2.78.7.46,1,.95.35,1.8C26.4,36.52,24.05,40,21.69,43.45c-1,1.45-1.09,1.48-2.53.42-1.94-1.41-3.85-2.84-5.8-4.24-.35-.25-.69-.72-1.18,0s-.18.84.28,1.16c1.66,1.17,3.3,2.38,5,3.54A9.26,9.26,0,0,0,20,45.93a1.89,1.89,0,0,0,2.35-.8c.55-.91.9-.64,1.38-.06a9.67,9.67,0,0,1,.65.89,1.09,1.09,0,0,1-.15,1.67,2.59,2.59,0,0,0-.53,3,2.94,2.94,0,0,0,2.6,2c.68,0,.95.23,1.15.86A3.05,3.05,0,0,0,30.76,56c.4,0,.43.07.54.42a3,3,0,0,0,3.28,2.44c.57-.06.81.14,1,.7A2.75,2.75,0,0,0,39.47,61a2.13,2.13,0,0,1,2.29-.26,2.33,2.33,0,0,0,1.75-.2,3.67,3.67,0,0,0,2.13-2.92.5.5,0,0,1,.13,0c2.81,1.74,4.61,1.15,5.72-1.91.17-.45.37-.29.67-.15A3.32,3.32,0,0,0,57,52.79l.89.39a3.08,3.08,0,0,0,4.26-1.3A3.19,3.19,0,0,0,61,47.44c-2.88-2-5.81-3.88-8.64-5.91-1.31-.94-2.54-1.77-4.28-1.53a3.3,3.3,0,0,1-3.86-2.81c-.14-.61-.42-.62-.88-.61-1.88,0-3.77.05-5.65,0-.82,0-1.13.29-1.21,1a4.5,4.5,0,0,1-1.09,2.52,1.57,1.57,0,0,1-1.67.7c-.58-.22-.17-.88-.28-1.33-.6-2.62.54-4.22,3-5.07C37.54,34,38.34,33,39.57,33c4.75,0,9.5,0,14.25,0a.86.86,0,0,1,.86.49c2.39,3.88,5,7.62,7.69,11.31,1.16,1.6,2.33,1.73,3.9.59,2.07-1.51,4.14-3,6.23-4.49.44-.31.72-.55.37-1.1S72.15,39.17,71.65,39.53ZM26.59,51.33A1.92,1.92,0,0,1,25,49.49a1.57,1.57,0,0,1,1.67-1.6,1.93,1.93,0,0,1,1.79,1.91A2,2,0,0,1,26.59,51.33Zm3.42,3A1.58,1.58,0,0,1,28.9,52a5.32,5.32,0,0,1,1.85-2.27,1.69,1.69,0,0,1,2.54,1.52C33.28,52.73,31.2,54.7,30,54.37Zm5.72,2.49a1.44,1.44,0,0,1-1.31.54,1.69,1.69,0,0,1-1.52-2.46,31,31,0,0,1,2.4-3.28,1.63,1.63,0,0,1,2.26-.2,1.66,1.66,0,0,1,.51,2.2C37.35,54.77,36.53,55.81,35.73,56.86Zm2.49,3a1.46,1.46,0,0,1-1.44-1.36,2.22,2.22,0,0,1,1.77-1.9A1.54,1.54,0,0,1,40,58.12,1.88,1.88,0,0,1,38.22,59.85Zm-5.49-25a1,1,0,0,0-.67,1.08c0,1.85,0,3.7,0,5.55,0,.53.18.74.7.88A4,4,0,0,0,37,40.53a4.78,4.78,0,0,0,.71-1.43c.19-.93.65-1.21,1.58-1.13a27.24,27.24,0,0,0,3.13,0,.68.68,0,0,1,.76.47,4.71,4.71,0,0,0,4.77,3.1A6.94,6.94,0,0,1,52,43c2.78,1.93,5.6,3.79,8.41,5.68.81.54,1,1.39.43,2.46a1.56,1.56,0,0,1-2.07.79,22.63,22.63,0,0,1-4.1-2.62c-2-1.32-4-2.74-6-4.13-.44-.31-.73-.33-1.07.17s-.29.71.23,1c2.1,1.39,4.16,2.85,6.23,4.29.25.17.5.33.73.52a1.9,1.9,0,0,1,.43,2.5,1.74,1.74,0,0,1-2.46.56c-1.71-1.08-3.36-2.24-5-3.37-.66-.45-1.35-.87-2-1.38s-.77-.28-1.21.23c-.6.69,0,.85.32,1.08,1.42,1,2.87,1.9,4.3,2.86a1.9,1.9,0,0,1,.67,2.59,1.81,1.81,0,0,1-2.68.51c-1.4-1-2.8-1.91-4.14-2.94-.59-.46-.76-.21-1.16.23-.52.6-.06.69.28.94s.92.76,1.37,1.16A1.59,1.59,0,0,1,44,58.08a2,2,0,0,1-1.52,1.31c-.66.13-1.2,0-1.12-.93a2.64,2.64,0,0,0-2-3.09c-.61-.18-.21-.53-.09-.76A3.56,3.56,0,0,0,39.61,52a3.21,3.21,0,0,0-4.17-2.11c-.6.29-.88.15-1.22-.39a3,3,0,0,0-3.63-1.3c-.57.19-.92.27-1.35-.38a2.68,2.68,0,0,0-2.5-1.37c-.45,0-.65-.19-.81-.58a5.81,5.81,0,0,0-1.76-2.39c-.46-.36-.33-.67-.08-1,2.19-3.06,4.34-6.15,6.36-9.33.2-.32.46-.23.7-.24H35.7l0,.18C34.74,33.69,33.75,34.28,32.73,34.81Zm18.37-5c-.91,1.62-2.32,1.95-4.07,1.78-1.43-.14-2.89,0-4.34,0a46.35,46.35,0,0,0-5.14,0c-1.65.2-2.56-.68-3.43-1.77-4.64-5.79-7-12.55-8.51-19.71-.18-.9.52-.91,1-1a33.51,33.51,0,0,0,6.28-1.46,26.1,26.1,0,0,0,9-4.69.69.69,0,0,1,1-.05A29.08,29.08,0,0,0,55.05,8.48a35.65,35.65,0,0,0,3.7.75c.65.09.67.44.59.89-1.28,7.05-3.56,13.7-8,19.43C51.25,29.63,51.15,29.69,51.1,29.78Z"/><path d="M63.54,41.37c0,.27.26,1,.72,1s1.1-.23,1.08-.79c0-.38-.44-.75-.72-1.17C64.23,40.8,63.53,40.91,63.54,41.37Z"/><path d="M20.31,42.66c.5-.26.91-.65.91-1.08s-.66-.8-1-.8c-.5,0-.8.65-.83,1.08C19.4,42.1,20,42.4,20.31,42.66Z"/><path d="M22,40.27c.55.09.58-.68,1-1a2,2,0,0,0-1.11-.78c-.59-.08-.7.62-.78,1C21,39.92,21.69,40.22,22,40.27Z"/><path d="M62.84,39.92a1.18,1.18,0,0,0,1-.79c-.26-.31-.25-.92-.76-.91s-1,.27-1,.7S62.37,39.93,62.84,39.92Z"/><path d="M49.93,14.12c-3.35,2.37-6.77,4.65-10.14,7-.54.38-.74.31-1.06-.2-.66-1-1.37-2-2.06-3.05-.23-.35-.51-.57-.84-.11-.18.26-1,.15-.42.88,1.07,1.43,2,2.94,3.05,4.41.1.16.13.41.52.36.07-.05.24-.15.4-.27,3.8-2.6,7.59-5.22,11.42-7.8.55-.37.39-.64.11-1S50.52,13.71,49.93,14.12Z"/></svg>