<svg id="Layer_1" data-name="Layer 1" xmlns="http://www.w3.org/2000/svg" viewBox="0 0 85 62"><path d="M25.41,59.1l-.18,0c-.24,0-.48-.17-.48-.71,0-3,0-6,0-9V47.8c0-1.43,0-2.85,0-4.27a.94.94,0,0,0-.24-.73.89.89,0,0,0-.66-.24l-.34,0H16c-.93,0-1-.06-1-1v-.21c0-.15,0-.31,0-.46a1.78,1.78,0,0,0-1-2.07,1.09,1.09,0,0,1-.62-1.18c0-.72,0-1.45,0-2.17,0-.45,0-.9,0-1.35A1.09,1.09,0,0,1,14.35,33,.89.89,0,0,0,15,31.79a1.29,1.29,0,0,1,0-.24.72.72,0,0,0-.1-.67.91.91,0,0,0-.75-.29H12.35a.75.75,0,0,1-.55-.16.63.63,0,0,1-.12-.48c0-.41,0-.83,0-1.24v-.54a1.79,1.79,0,0,1,1.83-2.07A19.14,19.14,0,0,1,16,26l1.69,0,1.44,0h0a1.38,1.38,0,0,0,1.55-1.31,6.92,6.92,0,0,1,4.3-5.56,12.05,12.05,0,0,1,1.63-.6,4.65,4.65,0,0,1,1.1-.18c.55,0,.78.25,1.37,1.5s1.12,2.27,1.7,3.4l.72,1.39c0,.09.1.18.17.31l.88,1.48V23.78c0-.9,0-1.72,0-2.54V21a1.74,1.74,0,0,0-.81-1.76.66.66,0,0,1,.18-.58A1.72,1.72,0,0,1,33,18.37a2.14,2.14,0,0,1,1.35.34.6.6,0,0,1,.22.39c0,.08-.1.19-.27.3a1.25,1.25,0,0,0-.58,1.13v3.95c0,.53.27.69.51.73l.28.06.14-.26c.34-.64.65-1.28,1-1.93a30.81,30.81,0,0,1,1.75-3.31.73.73,0,0,0,.11-.37c.28-.89.72-1,1.11-1l.29,0a7.54,7.54,0,0,1,6.33,4.76,8.12,8.12,0,0,1,.61,3.07c0,4.06,0,8.13,0,12.19,0,2.18,0,4.35,0,6.53a2,2,0,0,1-1.91,2.18h0a2,2,0,0,1-.48-.06c-.58-.16-.56-.36-.54-.5S43,46,43.33,46h0a1.25,1.25,0,0,0,.93-.29,1.44,1.44,0,0,0,.29-1.09V40.07c0-4.53,0-9.22,0-13.82a6.66,6.66,0,0,0-3-5.84,4.89,4.89,0,0,0-2.12-.63l-.22,0H39.1c-.52,0-.76.5-.9.81l-.06.13c-.35.67-.68,1.35-1,2-.25.5-.49,1-.74,1.49S35.8,25.37,35.5,26c-.58,1.14-1.16,2.28-1.72,3.43-.13.29-.32.38-.79.41h0c-.17,0-.38-.05-.56-.42q-1.79-3.75-3.63-7.46l-.13-.27c-.24-.49-.49-1-.77-1.44a1,1,0,0,0-.91-.5,2.81,2.81,0,0,0-.93.21l-.22.08a6.46,6.46,0,0,0-3.54,3,1.84,1.84,0,0,0-.24.69,1.64,1.64,0,0,1-.12.41,1.52,1.52,0,0,0-.1,1.38A1.6,1.6,0,0,0,23.2,26h1.7a8.27,8.27,0,0,1,1.63.14,2,2,0,0,1,1.58,1.66c0,2.57,0,5.14,0,7.71V42a.72.72,0,0,1-.12.47.56.56,0,0,1-.38.11h-.17l-.3,0a1.11,1.11,0,0,0-.83.3A1.61,1.61,0,0,0,26,44c0,3.8,0,7.61,0,11.42v2.76a1.37,1.37,0,0,1-.05.56A.57.57,0,0,1,25.41,59.1ZM16.92,30.59a.74.74,0,0,0-.6.23.67.67,0,0,0-.14.58,1.28,1.28,0,0,1,0,.31.93.93,0,0,0,.56,1.23,1.54,1.54,0,0,1,1.17,1.69v.84c0,.52,0,1,0,1.55a1.91,1.91,0,0,1-1.19,2.13,1.08,1.08,0,0,0-.55,1.36,1.27,1.27,0,0,1,0,.32.74.74,0,0,0,.17.55.65.65,0,0,0,.48.19,1.43,1.43,0,0,0,.29,0l.12,0h4.5c1.39,0,2.79,0,4.18,0h0a1.07,1.07,0,0,0,1.25-1.26c0-1.41,0-2.81,0-4.22v-4q0-1.75,0-3.51A1.29,1.29,0,0,0,26,27.11h-.11a1,1,0,0,0-.81.33,1.36,1.36,0,0,0-.27,1.1,4.08,4.08,0,0,1,0,.7v.3c0,.91-.15,1.05-1.08,1.05H16.92Zm-1.3,3.29a1.23,1.23,0,0,0-1.22,1.39v1.85a.81.81,0,0,0,.56.93,2.31,2.31,0,0,0,.61.09c.76,0,1.21-.53,1.22-1.42v-1c0-.28,0-.55,0-.83a.79.79,0,0,0-.5-.85A1.82,1.82,0,0,0,15.62,33.88Zm5-4.44c.59,0,1.19,0,1.78,0h.12a1.14,1.14,0,0,0,.84-.27,1.32,1.32,0,0,0,.28-.95c0-.83-.35-1.18-1.15-1.18-1.33,0-2.61,0-3.9,0H14.16a2.5,2.5,0,0,0-.53,0,1.28,1.28,0,0,0-1,1.46.79.79,0,0,0,.84.88h3.59Z"/><path d="M59,46.16a1.22,1.22,0,0,1-.49-.09c-.05,0-.18-.07-.16-.39,0-.09.06-.55.38-.55,1.26,0,1.27-1.05,1.27-1.5q0-7.41,0-14.84a7.42,7.42,0,0,0-4.12-6.61,8.55,8.55,0,0,0-4.15-1h-4a.6.6,0,0,1-.43-.12.35.35,0,0,1-.07-.27c0-.54.29-.62.56-.62.61,0,1.19,0,1.77,0s1.15,0,1.73,0a19.4,19.4,0,0,1,2.16.11,8.58,8.58,0,0,1,5.5,2.93,9.64,9.64,0,0,1,2.39,7c0,1.43,0,2.87,0,4.3,0,.62,0,1.24,0,1.85v1.94c0,1.67,0,3.34,0,5a3.91,3.91,0,0,1-.45,2,2.23,2.23,0,0,1-1.84,1Z"/><path d="M32.84,16.11a5,5,0,0,1-4.43-2.52,7.18,7.18,0,0,1-1-4.76A7.54,7.54,0,0,1,28.8,5.06,5.62,5.62,0,0,1,33.19,2.9a4.28,4.28,0,0,1,1,.1,5.34,5.34,0,0,1,4.09,3.33,8.19,8.19,0,0,1,.68,3.24A7.11,7.11,0,0,1,36.69,15a5.4,5.4,0,0,1-3.75,1.14Zm.29-12a3.29,3.29,0,0,0-.54,0A4.16,4.16,0,0,0,28.9,7.47a6.71,6.71,0,0,0,1,6.1,4.79,4.79,0,0,0,3.52,1.48,2.87,2.87,0,0,0,1.5-.36l.34-.19a3.86,3.86,0,0,0,1.39-1.11,5.69,5.69,0,0,0,1-3.6l0-.41a6.24,6.24,0,0,0-.82-3.29A4.73,4.73,0,0,0,33.13,4.13Z"/><path d="M71,47c-.54,0-.54-.2-.55-.38a.68.68,0,0,1,.14-.5.25.25,0,0,1,.22-.09c.88,0,1.32-.52,1.31-1.5,0-1.88,0-3.77,0-5.66,0-3.24.06-6.59-.14-9.9a4.73,4.73,0,0,0-2.11-3.53A9,9,0,0,0,64,23.75H63a5.82,5.82,0,0,0-.59,0h0c-.44,0-.52-.14-.54-.38a.75.75,0,0,1,.15-.53.42.42,0,0,1,.27-.12h.68q.73,0,1.47,0a10.91,10.91,0,0,1,4.07.64,7.58,7.58,0,0,1,3.9,3.22,6.66,6.66,0,0,1,.94,3.35c0,1.72,0,3.44,0,5.15v2.53h0v7.07A2.18,2.18,0,0,1,71,47Z"/><path d="M40.88,59.09l-.2,0c-.3-.07-.36-.22-.37-.36a7.72,7.72,0,0,1-.06-.83V29.83a1.38,1.38,0,0,1,.06-.51c.19-.49.39-.55.56-.55H41c.18,0,.37.13.51.68a1.5,1.5,0,0,1,0,.31,1.48,1.48,0,0,0,0,.21V58.27c0,.3,0,.46-.14.61A.62.62,0,0,1,40.88,59.09Z"/><path d="M50.47,17.79a4.84,4.84,0,0,1-3.58-1.43A6.55,6.55,0,0,1,45.68,10a4.64,4.64,0,0,1,4.44-3.72,5.45,5.45,0,0,1,1.9.36,4.27,4.27,0,0,1,2.84,3.39,5.65,5.65,0,0,0,.17.71,3.6,3.6,0,0,1,.2,1.32c-.15,1.85-.54,3.74-2.38,5a4.2,4.2,0,0,1-2.38.66ZM50.32,7.54A3.3,3.3,0,0,0,47.66,8.7a5.73,5.73,0,0,0-.85,5.05,3.31,3.31,0,0,0,3.61,2.89,1.53,1.53,0,0,0,.41,0,2.84,2.84,0,0,0,2.34-1.51,6.11,6.11,0,0,0-.24-6.49A3.22,3.22,0,0,0,50.32,7.54Z"/><path d="M56.34,59.06l-.2,0a.39.39,0,0,1-.34-.38,5.56,5.56,0,0,1,0-.82V32.47c0-1.13.45-1.23.91-1.23a2.41,2.41,0,0,1,.5.06.67.67,0,0,1,.56.4.48.48,0,0,1-.17.47A2.12,2.12,0,0,0,57,33.9V58.14a.86.86,0,0,1-.17.7.57.57,0,0,1-.45.22Z"/><path d="M68.4,59.07a.59.59,0,0,1-.55-.39,1.84,1.84,0,0,1-.08-.68V36c0-1.23.53-1.39,1-1.39a2.21,2.21,0,0,1,.63.1.63.63,0,0,1,.43.47.36.36,0,0,1-.12.36A1.77,1.77,0,0,0,69,37.22V58c0,.43,0,.71-.23.93a.55.55,0,0,1-.41.18Z"/><path d="M63.08,20.36A3.41,3.41,0,0,1,60,18.65a6.07,6.07,0,0,1-.46-5.26,4.19,4.19,0,0,1,2.56-2.61,1.75,1.75,0,0,1,.71-.1c.2,0,.4,0,.63,0a1,1,0,0,1,.23,0c1.29,0,3,1.76,3.33,3.08a6.63,6.63,0,0,1-.1,4,3.63,3.63,0,0,1-3.75,2.65Zm.08-8.52a2.28,2.28,0,0,0-.7.11c-1.87.65-2,2.18-2,3.58,0,1.65.2,2.2,1.16,3.13a2.36,2.36,0,0,0,1.65.63,2.61,2.61,0,0,0,2.56-1.86,7.64,7.64,0,0,0,0-3.74A2.76,2.76,0,0,0,63.16,11.84Z"/><path d="M50.31,59.06c-.29,0-.65,0-.65-1V53.49q0-3.24,0-6.5a1.37,1.37,0,0,1,.28-.89.44.44,0,0,1,.36-.17.43.43,0,0,1,.19,0,.89.89,0,0,1,.48.85c0,1.37,0,2.74,0,4.11v7.12c0,1-.45,1-.63,1Z"/><path d="M62.35,59.06c-.4,0-.58-.14-.58-.87q0-3.34,0-6.69V49.37c.11-.87.43-.87.6-.87.41,0,.63.3.64.88,0,1,0,2.11,0,3.16v2.69c0,1,0,2,0,2.92,0,.34-.08.91-.62.91Z"/><path d="M33.09,59.08c-.3,0-.59-.06-.6-.81,0-2.64,0-5.27,0-7.91,0-.56.33-1,.54-1,.38.07.72.24.71,1,0,.93,0,1.86,0,2.79v2.3c0,.91,0,1.83,0,2.74,0,.76-.29.83-.63.84Z"/></svg>