<svg id="Layer_1" data-name="Layer 1" xmlns="http://www.w3.org/2000/svg" viewBox="0 0 85 62"><path d="M42.5,1A28.75,28.75,0,0,0,17.61,44.11a.46.46,0,0,0,.39.23.46.46,0,0,0,.23-.06.45.45,0,0,0,.16-.62A27.84,27.84,0,1,1,67,43a.45.45,0,1,0,.79.43A28.75,28.75,0,0,0,42.5,1Z"/><path d="M28.57,27.92c-.21.22-.63.34-.51.76.26,1,.55,1.9.88,3,.29-1.08.54-2,.78-2.92a.79.79,0,0,0-.44-.88A.52.52,0,0,0,28.57,27.92Z"/><path d="M42.15,18.39c1.52,0,3,0,4.56,0a2.82,2.82,0,0,1,1.35.31L51.8,20.5c-.4-.66-.67-1.16-1-1.62s-.3-.53.23-.65a1.28,1.28,0,0,0,1.12-1.46V10.85c0-1.09-.5-1.61-1.58-1.61H41.66A1.6,1.6,0,0,0,39.87,11c0,1.71.08,3.43,0,5.13S40.76,18.4,42.15,18.39Zm7.28-2.13H44.65c-.26,0-.52,0-.5-.39s.19-.49.54-.49h4.78c.34,0,.53.09.54.48S49.7,16.26,49.43,16.26Zm-7-5h7c.31,0,.57,0,.56.45s-.31.41-.6.41H42.47c-.3,0-.59,0-.6-.41S42.12,11.24,42.44,11.24Zm.06,2.24h6.78c.33,0,.72,0,.72.46s-.41.44-.73.44H42.49c-.34,0-.63,0-.64-.46S42.19,13.48,42.5,13.48Z"/><path d="M32.89,23.45a4.08,4.08,0,0,0-1.14-3,4,4,0,0,0-2.85-1.29,4,4,0,0,0-2.75,1.17,4.46,4.46,0,0,0-1.32,3.11,4.51,4.51,0,0,0,1.33,3.11,3.88,3.88,0,0,0,2.7,1.15h0a4,4,0,0,0,2.85-1.27A4.09,4.09,0,0,0,32.89,23.45Zm-4,3.37h0a2.92,2.92,0,0,1-2.06-.9,3.39,3.39,0,0,1,0-4.93,2.94,2.94,0,0,1,2.09-.91h0a3.06,3.06,0,0,1,2.2,1,3.14,3.14,0,0,1,.9,2.35,3.3,3.3,0,0,1-.9,2.39A3.1,3.1,0,0,1,28.88,26.82Z"/><path d="M61.07,23.49a4.23,4.23,0,0,0-3.61-4.3,4,4,0,0,0-3,1A4.39,4.39,0,0,0,53,23.38a4.27,4.27,0,0,0,3.68,4.34H57a4,4,0,0,0,2.73-1.11A4.2,4.2,0,0,0,61.07,23.49Zm-4.31,3.33A3.4,3.4,0,0,1,53.9,23.4a3.57,3.57,0,0,1,1.15-2.54,3,3,0,0,1,2-.78h.3A3.48,3.48,0,0,1,59.14,26,3.06,3.06,0,0,1,56.76,26.82Z"/><path d="M56.66,28c-.23.25-.6.39-.41.92.3.85.45,1.75.67,2.63h.14c.26-.9.54-1.79.79-2.7.11-.4-.18-.69-.43-.91A.54.54,0,0,0,56.66,28Z"/><path d="M38.1,12.44c-.93,0-1.86,0-2.78,0-1.14.07-1.55.52-1.56,1.67q0,2.64,0,5.28c0,.92.24,1.22,1.14,1.53.28.1.4.18.29.55-.21.69-.29,1.41-.46,2.29,1.05-.86,2-1.59,2.85-2.36a1.21,1.21,0,0,1,.88-.35c1.37,0,2.75,0,4.13,0a1.92,1.92,0,0,0,1.71-.82,1,1,0,0,0,.11-.89c-.1-.29-.42-.14-.63-.14-1.12,0-2.24-.06-3.35,0-1.38.08-1.87-.69-1.85-1.82,0-1.48,0-2.95,0-4.42C38.6,12.63,38.53,12.43,38.1,12.44Z"/><path d="M28.14,49c0-1.28,0-2.57,0-3.85,0-.63-.31-.94-1-.92-.94,0-1.89,0-2.84,0s-2,0-3,0c-.62,0-.91.21-.89.87,0,1.33,0,2.66,0,4,0,.68.32.86.9.86h5.84A.86.86,0,0,0,28.14,49Z"/><path d="M64.57,44.23H58.86c-.89,0-1,.11-1,1V49c0,.8.15,1,.93,1h5.78c.71,0,1-.29,1-1V45.26C65.57,44.49,65.32,44.24,64.57,44.23Z"/><path d="M61.3,50.49H59.43c-.66,0-1.32,0-2,0-.27,0-.34,0-.36-.07s-.06-.08-.06-.3V43.92c0-.22,0-.3.07-.32a.64.64,0,0,1,.33-.06h5.14a1.35,1.35,0,0,0,1.37-.91,9.78,9.78,0,0,0,.64-3.17A28.66,28.66,0,0,0,64,32.54,5.46,5.46,0,0,0,60.11,28a1.44,1.44,0,0,0-1.08,0,1.41,1.41,0,0,0-.61.86c-.39,1.28-.83,2.54-1.28,3.87l-.13.38-.11-.35c-.45-1.41-.88-2.76-1.28-4.12a.92.92,0,0,0-1.26-.74,5.73,5.73,0,0,0-4,3.17,23.2,23.2,0,0,1-2.06,4c-1.5,2.21-3,3.82-5.32,4.48l-.2.08-.37-.18a8.85,8.85,0,0,1-2.1-1.22,17,17,0,0,1-4.62-6.76,5.83,5.83,0,0,0-4.15-3.56,1,1,0,0,0-.82.06,1.07,1.07,0,0,0-.47.69c-.1.41-.23.82-.36,1.23l-.07.23c-.3,1-.61,2-.93,3l-.13-.38c-.48-1.38-.95-2.75-1.42-4.13-.21-.63-.59-.86-1.14-.68A6.06,6.06,0,0,0,23,29.89,8.77,8.77,0,0,0,21.66,34l-.08.59a22.83,22.83,0,0,0-.2,4.83A16.49,16.49,0,0,0,22,42.72a1.1,1.1,0,0,0,1.21.84c.74,0,1.48,0,2.22,0,1,0,2,0,3,0a.76.76,0,0,1,.32,0,3.13,3.13,0,0,1,0,1.13,20.49,20.49,0,0,0,0,4.94c.08.61,0,.76,0,.79a.57.57,0,0,1-.34,0H24.59a1,1,0,0,0-.77.25.94.94,0,0,0-.24.73c0,.77,0,1.54,0,2.31a39.9,39.9,0,0,0,.12,4.5,3.34,3.34,0,0,0,2.12,2.64,2.18,2.18,0,0,0,.63.09,3.33,3.33,0,0,0,2.39-1.09h0a2.9,2.9,0,0,0,2.08,1,2.49,2.49,0,0,0,1.91-.69,3.15,3.15,0,0,0,1-2.28c0-1.85,0-3.72,0-5.54,0-3.2-.06-6.51.17-9.76.1-1.4.29-2.77.49-4.23l.12-.87c1.78,2.45,4,4.7,7.33,5.6a.49.49,0,0,0,.54-.19,2.16,2.16,0,0,0,1.53.15,11.37,11.37,0,0,0,5.34-3.29,15.65,15.65,0,0,0,1.78-2.17l.13-.18v.34a4.53,4.53,0,0,0,0,.74c0,.35.11.71.17,1.06A28.66,28.66,0,0,1,52,43.78c0,3.06,0,6.11,0,9.17,0,1.61,0,3.22,0,4.82a3.35,3.35,0,0,0,1.07,2.51,2.65,2.65,0,0,0,2.07.69,3.07,3.07,0,0,0,1.95-1.08A3.19,3.19,0,0,0,59.42,61a2.49,2.49,0,0,0,1.08-.24,3.24,3.24,0,0,0,1.81-3.12c0-.94,0-1.87,0-2.8,0-1.12,0-2.23,0-3.34a1.05,1.05,0,0,0-.25-.77A1,1,0,0,0,61.3,50.49ZM41.34,42c-3-1.11-5-3.48-6.6-5.91l-.68-1-.14,1.19q-.14,1-.27,2c-.21,1.47-.4,2.86-.5,4.29-.23,3.28-.2,6.61-.17,9.83,0,1.81,0,3.68,0,5.52a2.28,2.28,0,0,1-.74,1.63,1.63,1.63,0,0,1-1.23.45,1.89,1.89,0,0,1-1.51-.79,2,2,0,0,0-.16-.14L28.82,52l-.53,7.21-.06,0a2.28,2.28,0,0,1-2.15.83,2.43,2.43,0,0,1-1.48-1.87,40.41,40.41,0,0,1-.12-4.4q0-1.17,0-2.34v-.06h1.8c.71,0,1.43,0,2.15,0a1.34,1.34,0,0,0,1-.36,1.89,1.89,0,0,0,.26-1.5,19.19,19.19,0,0,1,0-4.72c.11-.89.15-1.46-.2-1.84a1.29,1.29,0,0,0-1-.34c-1,0-2,0-3,0H23.22c-.26,0-.29,0-.33-.19a15.23,15.23,0,0,1-.61-3.08,22.27,22.27,0,0,1,.19-4.63l.08-.6a8,8,0,0,1,1.13-3.74,5.08,5.08,0,0,1,2.81-1.71.39.39,0,0,1,0,.09c.46,1.39.94,2.76,1.41,4.14L28.3,34l.14.36L29,35.77l.72-2.32,1-3.14.07-.23c.14-.43.27-.85.38-1.28a.64.64,0,0,1,0-.12s.05,0,.12,0a4.94,4.94,0,0,1,3.56,3,17.83,17.83,0,0,0,4.87,7.11A8,8,0,0,0,41.59,40,2.15,2.15,0,0,0,41.34,42Zm20.08,12.8c0,.93,0,1.86,0,2.79A2.34,2.34,0,0,1,60.11,60a2.08,2.08,0,0,1-2.44-.76l-.61-.68-.34.41A2.51,2.51,0,0,1,55,60.07a1.77,1.77,0,0,1-1.37-.46,2.46,2.46,0,0,1-.77-1.84c0-1.6,0-3.21,0-4.82,0-3.06,0-6.12,0-9.17a28.46,28.46,0,0,0-.46-4.27c-.06-.35-.12-.7-.17-1a4.09,4.09,0,0,1,0-.61,2.64,2.64,0,0,0-.34-1.59l-.34-.54-.39.51c-.24.31-.46.62-.69.93a14.63,14.63,0,0,1-1.67,2.05,10.72,10.72,0,0,1-4.92,3.07c-.39.08-1.07.13-1.27-.58a1.11,1.11,0,0,1,.68-1.36c2.74-.78,4.42-2.79,5.82-4.84a23.93,23.93,0,0,0,2.14-4.13,4.75,4.75,0,0,1,3.38-2.67l.08,0a.44.44,0,0,1,.06.16c.4,1.36.84,2.72,1.29,4.14l.94,3,1-3c.46-1.33.9-2.61,1.29-3.89.09-.29.16-.33.16-.33s.08,0,.39.07a4.58,4.58,0,0,1,3.32,3.89,28,28,0,0,1,.53,6.72,8.72,8.72,0,0,1-.57,2.87c-.14.32-.24.38-.52.37H57.45a1.38,1.38,0,0,0-1,.32,1.26,1.26,0,0,0-.34,1v6.21a1.3,1.3,0,0,0,.33,1,1.39,1.39,0,0,0,1,.32c.65,0,1.3,0,2,0h2a.33.33,0,0,1,0,.1C61.41,52.6,61.41,53.72,61.42,54.84Z"/></svg>