<svg xmlns="http://www.w3.org/2000/svg" width="68.967" height="57.557" viewBox="0 0 68.967 57.557">
  <path id="Path_5920" data-name="Path 5920" d="M61.022,3.719H11.571a9.519,9.519,0,0,0-9.508,9.508v38.04a9.519,9.519,0,0,0,9.508,9.508H61.022a9.519,9.519,0,0,0,9.508-9.508V13.227A9.516,9.516,0,0,0,61.022,3.719Zm-49.451,3.8H61.022a5.706,5.706,0,0,1,5.6,4.678L36.3,30.039,5.97,12.2A5.706,5.706,0,0,1,11.571,7.522ZM61.022,56.973H11.571a5.712,5.712,0,0,1-5.705-5.705V16.552l30.43,17.9,30.43-17.9V51.268A5.712,5.712,0,0,1,61.022,56.973Z" transform="translate(-1.813 -3.469)" stroke="#fff" stroke-width="0.5"/>
</svg>
