<svg xmlns="http://www.w3.org/2000/svg" width="57.82" height="57.821" viewBox="0 0 57.82 57.821">
  <g id="Group_5170" data-name="Group 5170" transform="translate(-821.484 -1687.494)">
    <path id="Path_5826" data-name="Path 5826" d="M56.745,13.209A17.577,17.577,0,0,1,74.3,30.765a1.277,1.277,0,1,0,2.553,0,20.132,20.132,0,0,0-20.11-20.11,1.277,1.277,0,1,0,0,2.553Z" transform="translate(798.395 1680.893)" stroke="#000" stroke-width="1"/>
    <path id="Path_5827" data-name="Path 5827" d="M56.745,26.354A9.269,9.269,0,0,1,66,35.611a1.277,1.277,0,0,0,2.553,0A11.822,11.822,0,0,0,56.745,23.8a1.277,1.277,0,1,0,0,2.553Z" transform="translate(798.395 1676.046)" stroke="#000" stroke-width="1"/>
    <path id="Path_5828" data-name="Path 5828" d="M17.907,48.929C24.734,55.746,33.139,60.2,41.575,61.463a27.281,27.281,0,0,0,17.77-2.881,4.893,4.893,0,0,0,2.422-3.7,7.891,7.891,0,0,0-2.47-6.46l-7.02-7.02a8.065,8.065,0,0,0-5.812-2.509,5.177,5.177,0,0,0-3.775,1.671l-4.383,4.9A37.861,37.861,0,0,1,21.379,28.527l4.9-4.383a5.177,5.177,0,0,0,1.671-3.775,8.065,8.065,0,0,0-2.509-5.812l-7.02-7.02a7.891,7.891,0,0,0-6.459-2.47,4.9,4.9,0,0,0-3.7,2.422A27.281,27.281,0,0,0,5.372,25.26C6.638,33.7,11.089,42.1,17.907,48.929ZM10.469,8.758A2.388,2.388,0,0,1,12.3,7.6a5.42,5.42,0,0,1,4.316,1.744l7.02,7.02A5.592,5.592,0,0,1,25.393,20.3a2.654,2.654,0,0,1-.822,1.943l-6.307,5.648.391.855A40.284,40.284,0,0,0,38.092,48.18l.855.392,5.648-6.308a2.654,2.654,0,0,1,1.943-.821A5.592,5.592,0,0,1,50.473,43.2l7.02,7.02a5.419,5.419,0,0,1,1.744,4.317,2.388,2.388,0,0,1-1.159,1.825,24.767,24.767,0,0,1-16.123,2.572c-7.9-1.185-15.8-5.381-22.241-11.815S9.082,32.78,7.9,24.881A24.767,24.767,0,0,1,10.469,8.758Z" transform="translate(817 1682.964)" stroke="#000" stroke-width="1"/>
  </g>
</svg>
