<svg xmlns="http://www.w3.org/2000/svg" width="66.105" height="66.086" viewBox="0 0 66.105 66.086">
  <g id="Group_5165" data-name="Group 5165" transform="translate(-700 -1209)">
    <path id="Path_5915" data-name="Path 5915" d="M52.491,6H17.664C11.234,6,6,10.732,6,16.574V37.45c0,5.816,5.234,10.574,11.664,10.574H30.121l1.057.8L46.312,60.19V48h6.2c6.43,0,11.664-4.732,11.664-10.574V16.574C64.155,10.732,58.921,6,52.491,6ZM21.676,30.934a3.8,3.8,0,1,1,3.773-3.747,3.8,3.8,0,0,1-3.773,3.747Zm13.363,0a3.8,3.8,0,1,1,3.833-3.787A3.84,3.84,0,0,1,35.038,30.934Zm13.442,0a3.793,3.793,0,1,1,2.683-1.125,3.8,3.8,0,0,1-2.683,1.125Z" transform="translate(697.965 1206.965)" fill="none"/>
    <path id="Path_5916" data-name="Path 5916" d="M50.456,0H15.629C7.032,0,0,6.529,0,14.539V35.415C0,43.4,7.032,49.954,15.629,49.954H26.765L48.243,66.086V49.928h2.234c8.591,0,15.629-6.529,15.629-14.539V14.539C66.086,6.529,59.054,0,50.456,0ZM62.12,35.415c0,5.816-5.234,10.574-11.664,10.574H44.277V58.155l-15.134-11.4-1.057-.8H15.629C9.2,45.963,3.965,41.231,3.965,35.415V14.539C3.965,8.723,9.2,3.965,15.629,3.965H50.456c6.43,0,11.664,4.732,11.664,10.574Z" transform="translate(700 1209)"/>
    <path id="Path_5917" data-name="Path 5917" d="M48.047,32.24a3.8,3.8,0,1,0,3.793,3.807A3.8,3.8,0,0,0,48.047,32.24Z" transform="translate(684.996 1198.066)"/>
    <path id="Path_5918" data-name="Path 5918" d="M27.793,32.24a3.787,3.787,0,1,0,2.673,1.144,3.8,3.8,0,0,0-2.673-1.144Z" transform="translate(691.881 1198.066)"/>
    <path id="Path_5919" data-name="Path 5919" d="M68.353,32.24A3.8,3.8,0,1,0,72.1,36.013,3.8,3.8,0,0,0,68.353,32.24Z" transform="translate(678.125 1198.066)"/>
  </g>
</svg>
