<svg xmlns="http://www.w3.org/2000/svg" width="66.725" height="66.725" viewBox="0 0 66.725 66.725">
  <g id="whatsapp_5_" data-name="whatsapp (5)" transform="translate(0.369 0.249)">
    <path id="Path_5824" data-name="Path 5824" d="M15.989,61.389a32.811,32.811,0,0,0,16.948,4.693,33.222,33.222,0,0,0,33.17-33.041A33.041,33.041,0,1,0,4.718,50.117L0,66.106ZM3.9,33.041A29.03,29.03,0,1,1,17.316,57.656l-.744-.476L5.727,60.38l3.2-10.844-.476-.744A29.164,29.164,0,0,1,3.9,33.041Zm0,0" transform="translate(0 0)" stroke="#fff" stroke-width="0.5"/>
    <path id="Path_5825" data-name="Path 5825" d="M121.487,104.581a23.2,23.2,0,0,0,18.61,18.61c3.057.582,7.544.67,9.737-1.523l1.222-1.222a3.267,3.267,0,0,0,0-4.621l-4.888-4.889a3.268,3.268,0,0,0-4.621,0l-1.222,1.222a2.174,2.174,0,0,1-2.908.009l-4.876-5.081-.022-.022a1.92,1.92,0,0,1,0-2.712l1.222-1.222a3.265,3.265,0,0,0,0-4.621l-4.889-4.889a3.271,3.271,0,0,0-4.621,0l-1.222,1.222h0c-1.75,1.75-2.333,5.481-1.523,9.738Zm3.7-7.561c1.283-1.254,1.214-1.278,1.356-1.278a.189.189,0,0,1,.134.055c5.151,5.179,4.944,4.874,4.944,5.023a.185.185,0,0,1-.055.134l-1.222,1.222a4.993,4.993,0,0,0-.012,7.053l4.879,5.084.022.022a5.25,5.25,0,0,0,7.27,0l1.222-1.222a.19.19,0,0,1,.268,0c5.151,5.178,4.944,4.874,4.944,5.022a.185.185,0,0,1-.055.134l-1.222,1.222c-.838.838-3.505,1.339-6.985.676A20.127,20.127,0,0,1,124.51,104c-.663-3.48-.162-6.148.676-6.985Zm0,0" transform="translate(-102.994 -75.229)"/>
  </g>
</svg>
