<svg xmlns="http://www.w3.org/2000/svg" width="52.443" height="63.839" viewBox="0 0 52.443 63.839">
  <g id="Group_5190" data-name="Group 5190" transform="translate(-924.41 -1106)">
    <path id="Path_5925" data-name="Path 5925" d="M38.63,7.9a16.354,16.354,0,0,1,16.4,16.3,20.858,20.858,0,0,1-4.686,12.5L38.63,50.275,26.92,36.718a20.841,20.841,0,0,1-4.69-12.509A16.354,16.354,0,0,1,38.63,7.9Zm0-3.123A19.519,19.519,0,0,0,19.1,24.208a23.277,23.277,0,0,0,5.438,14.535v0L30,45.069H20.616a1.573,1.573,0,0,0-1.488,1.078L12.487,66.587a1.558,1.558,0,0,0,1.492,2.034h49.3a1.561,1.561,0,0,0,1.5-2.034L58.131,46.147a1.566,1.566,0,0,0-1.491-1.078H50.68a1.562,1.562,0,1,0,0,3.119H55.5L61.124,65.5H16.14l5.618-17.311H32.69l4.2,4.866H34.136a1.516,1.516,0,1,0,0,3.031h8.977a1.516,1.516,0,1,0,0-3.031H40.369L52.721,38.748v0a23.256,23.256,0,0,0,5.443-14.535A19.522,19.522,0,0,0,38.63,4.782Z" transform="translate(912 1101.218)"/>
    <path id="Path_5926" data-name="Path 5926" d="M46.456,30.376a4.763,4.763,0,0,1-6.742,0,4.713,4.713,0,0,1,0-6.715,4.763,4.763,0,0,1,6.742,0,4.69,4.69,0,0,1,0,6.7Zm2.223,2.207a7.859,7.859,0,0,0,0-11.12,7.96,7.96,0,0,0-11.179,0,7.851,7.851,0,0,0,0,11.12A7.96,7.96,0,0,0,48.679,32.582Z" transform="translate(907.544 1098.404)"/>
  </g>
</svg>
